<svg width="20" height="20" viewBox="0 0 20 20" fill="none" xmlns="http://www.w3.org/2000/svg">
<path d="M7.00083 9.99985L9.00083 11.9999L13.0008 7.99985M5.83583 2.69685C6.55313 2.6396 7.23411 2.35755 7.78183 1.89085C8.40074 1.36312 9.18747 1.07324 10.0008 1.07324C10.8142 1.07324 11.6009 1.36312 12.2198 1.89085C12.7675 2.35755 13.4485 2.6396 14.1658 2.69685C14.9766 2.76135 15.7378 3.11268 16.3129 3.68777C16.888 4.26287 17.2393 5.0241 17.3038 5.83485C17.3611 6.55216 17.6431 7.23313 18.1098 7.78085C18.6376 8.39976 18.9274 9.18649 18.9274 9.99985C18.9274 10.8132 18.6376 11.5999 18.1098 12.2189C17.6431 12.7666 17.3611 13.4475 17.3038 14.1649C17.2393 14.9756 16.888 15.7368 16.3129 16.3119C15.7378 16.887 14.9766 17.2383 14.1658 17.3029C13.4485 17.3601 12.7675 17.6421 12.2198 18.1089C11.6009 18.6366 10.8142 18.9265 10.0008 18.9265C9.18747 18.9265 8.40074 18.6366 7.78183 18.1089C7.23411 17.6421 6.55313 17.3601 5.83583 17.3029C5.02508 17.2383 4.26385 16.887 3.68875 16.3119C3.11365 15.7368 2.76233 14.9756 2.69783 14.1649C2.64058 13.4475 2.35853 12.7666 1.89183 12.2189C1.3641 11.5999 1.07422 10.8132 1.07422 9.99985C1.07422 9.18649 1.3641 8.39976 1.89183 7.78085C2.35853 7.23313 2.64058 6.55216 2.69783 5.83485C2.76233 5.0241 3.11365 4.26287 3.68875 3.68777C4.26385 3.11268 5.02508 2.76135 5.83583 2.69685Z" stroke="#4061F8" stroke-width="2" stroke-linecap="round" stroke-linejoin="round"/>
</svg>
