<svg width="547" height="545" viewBox="0 0 547 545" fill="none" xmlns="http://www.w3.org/2000/svg">
<g filter="url(#filter0_d_125_11178)">
<path d="M532.451 220.614C532.451 266.414 495.323 303.543 449.522 303.543C403.722 303.543 366.594 266.414 366.594 220.614C366.594 174.814 403.722 137.686 449.522 137.686C495.323 137.686 532.451 174.814 532.451 220.614Z" fill="white"/>
</g>
<g opacity="0.6" filter="url(#filter1_d_125_11178)">
<path d="M461.873 238.238C461.556 236.439 459.922 234.75 458.224 234.466C456.526 234.182 454.733 233.07 454.09 232.057C453.447 231.045 453.197 228.945 453.657 227.286C454.115 225.626 453.273 223.431 451.776 222.383C450.281 221.335 447.93 221.295 446.526 222.294C445.124 223.292 443.069 223.777 441.9 223.519C440.732 223.26 439.072 221.953 438.223 220.456C437.372 218.958 435.224 218.001 433.426 218.319C431.627 218.636 429.935 220.269 429.649 221.968C429.362 223.666 428.25 225.461 427.24 226.104C426.231 226.746 424.133 226.994 422.474 226.535C420.814 226.076 418.619 226.918 417.571 228.414C416.523 229.911 416.483 232.261 417.482 233.665C418.48 235.068 418.962 237.124 418.702 238.295C418.442 239.466 417.142 241.127 415.644 241.974C414.146 242.821 413.189 244.967 413.506 246.766C413.824 248.565 415.457 250.256 417.155 250.543C418.853 250.829 420.644 251.944 421.289 252.954C421.933 253.962 422.181 256.059 421.723 257.718C421.264 259.377 422.106 261.573 423.602 262.621C425.098 263.668 427.449 263.709 428.852 262.71C430.256 261.711 432.311 261.228 433.479 261.487C434.649 261.747 436.308 263.058 437.157 264.552C438.007 266.047 440.155 267.002 441.954 266.685C443.753 266.368 445.444 264.735 445.732 263.04C446.018 261.345 447.128 259.548 448.137 258.903C449.147 258.258 451.246 258.01 452.905 258.47C454.565 258.928 456.761 258.086 457.808 256.591C458.856 255.094 458.896 252.743 457.898 251.34C456.899 249.937 456.414 247.882 456.672 246.714C456.931 245.545 458.238 243.885 459.736 243.036C461.234 242.185 462.19 240.037 461.873 238.238ZM439.254 251.376C434.348 252.241 429.681 248.973 428.818 244.077C427.952 239.17 431.22 234.503 436.127 233.638C441.022 232.775 445.69 236.042 446.555 240.949C447.419 245.846 444.151 250.512 439.254 251.376Z" fill="url(#paint0_linear_125_11178)"/>
<path d="M488.951 220.077C488.789 219.155 487.952 218.29 487.082 218.145C486.212 217.999 485.294 217.43 484.964 216.911C484.635 216.392 484.507 215.317 484.742 214.466C484.977 213.616 484.546 212.492 483.779 211.955C483.013 211.418 481.809 211.398 481.09 211.909C480.371 212.421 479.319 212.669 478.72 212.537C478.121 212.404 477.271 211.735 476.836 210.967C476.4 210.2 475.3 209.71 474.379 209.873C473.457 210.035 472.591 210.872 472.444 211.742C472.297 212.612 471.727 213.531 471.21 213.861C470.693 214.19 469.618 214.317 468.768 214.082C467.918 213.847 466.793 214.278 466.257 215.045C465.72 215.811 465.699 217.015 466.211 217.734C466.723 218.453 466.969 219.506 466.836 220.106C466.703 220.706 466.037 221.557 465.27 221.991C464.502 222.425 464.012 223.524 464.175 224.445C464.337 225.367 465.174 226.233 466.044 226.38C466.914 226.527 467.831 227.098 468.161 227.615C468.491 228.132 468.619 229.206 468.384 230.056C468.149 230.906 468.58 232.031 469.346 232.567C470.113 233.104 471.317 233.125 472.036 232.613C472.755 232.101 473.807 231.854 474.406 231.987C475.006 232.12 475.855 232.791 476.29 233.557C476.726 234.322 477.826 234.812 478.747 234.649C479.669 234.487 480.535 233.651 480.683 232.782C480.829 231.914 481.398 230.993 481.915 230.663C482.432 230.332 483.508 230.205 484.357 230.441C485.208 230.676 486.333 230.244 486.869 229.478C487.406 228.712 487.427 227.507 486.915 226.789C486.403 226.07 486.155 225.017 486.287 224.419C486.42 223.82 487.089 222.97 487.857 222.535C488.624 222.098 489.114 220.998 488.951 220.077ZM477.365 226.807C474.851 227.25 472.46 225.576 472.018 223.068C471.575 220.554 473.249 218.164 475.762 217.72C478.27 217.278 480.661 218.952 481.105 221.466C481.547 223.974 479.873 226.365 477.365 226.807Z" fill="url(#paint1_linear_125_11178)"/>
</g>
<path fill-rule="evenodd" clip-rule="evenodd" d="M372.071 384.824C373.268 383.905 374.45 382.966 375.613 382.008L376.661 383.243C375.469 384.226 374.259 385.188 373.032 386.128L372.071 384.824ZM379.054 379.071C380.183 378.073 381.294 377.056 382.385 376.02L383.599 377.109C382.481 378.17 381.343 379.212 380.186 380.235L379.054 379.071ZM364.712 390.072C365.967 389.242 367.208 388.389 368.433 387.515L369.306 388.884C368.051 389.78 366.78 390.653 365.495 391.504L364.712 390.072ZM385.595 372.864C386.644 371.795 387.672 370.71 388.679 369.608L390.048 370.538C389.016 371.668 387.963 372.78 386.888 373.875L385.595 372.864ZM357.053 394.77C358.354 394.033 359.642 393.274 360.917 392.492L361.608 393.982C360.303 394.783 358.984 395.56 357.652 396.314L357.053 394.77ZM391.629 366.259C392.587 365.131 393.523 363.987 394.436 362.828L395.947 363.591C395.012 364.778 394.053 365.951 393.071 367.107L391.629 366.259ZM349.163 398.88C350.496 398.244 351.818 397.585 353.13 396.901L353.636 398.497C352.293 399.196 350.938 399.872 349.574 400.522L349.163 398.88ZM397.093 359.323C397.951 358.146 398.786 356.954 399.596 355.75L401.235 356.338C400.405 357.573 399.549 358.793 398.67 360L397.093 359.323ZM341.118 402.371C342.473 401.84 343.819 401.284 345.157 400.704L345.474 402.389C344.105 402.983 342.727 403.552 341.34 404.095L341.118 402.371ZM401.94 352.116C402.691 350.902 403.416 349.676 404.116 348.438L405.865 348.847C405.149 350.115 404.406 351.371 403.637 352.615L401.94 352.116ZM332.989 405.221C334.35 404.799 335.706 404.351 337.055 403.879L337.182 405.638C335.802 406.122 334.416 406.58 333.023 407.011L332.989 405.221ZM324.841 407.417C326.204 407.104 327.562 406.765 328.916 406.4L328.857 408.218C327.472 408.591 326.083 408.938 324.69 409.257L324.841 407.417ZM406.121 344.721C406.759 343.48 407.371 342.229 407.956 340.968L409.799 341.196C409.2 342.488 408.573 343.769 407.92 345.04L406.121 344.721ZM316.756 408.949C318.102 408.748 319.446 408.52 320.787 408.266L320.544 410.125C319.174 410.385 317.8 410.618 316.424 410.824L316.756 408.949ZM409.615 337.191C410.135 335.939 410.627 334.679 411.093 333.411L413.01 333.46C412.534 334.758 412.029 336.048 411.498 337.329L409.615 337.191ZM308.772 409.826C310.097 409.734 311.421 409.615 312.744 409.47L312.325 411.356C310.973 411.504 309.62 411.626 308.267 411.72L308.772 409.826ZM412.395 329.619C412.797 328.359 413.173 327.092 413.521 325.818L415.494 325.693C415.138 326.995 414.754 328.291 414.342 329.58L412.395 329.619ZM300.964 410.056C302.259 410.071 303.554 410.059 304.85 410.021L304.262 411.919C302.939 411.957 301.617 411.97 300.295 411.955L300.964 410.056ZM414.463 322.052C414.606 321.421 414.742 320.789 414.872 320.155L416.875 319.903C416.743 320.551 416.603 321.197 416.457 321.841L414.463 322.052ZM293.379 409.661C294.63 409.778 295.883 409.869 297.137 409.935L296.39 411.831C295.111 411.764 293.832 411.671 292.556 411.551L293.379 409.661ZM286.041 408.664C287.247 408.88 288.456 409.07 289.667 409.234L288.772 411.117C287.537 410.949 286.305 410.755 285.076 410.536L286.041 408.664ZM278.985 407.097C280.147 407.407 281.313 407.692 282.483 407.951L281.452 409.81C280.261 409.545 279.073 409.255 277.889 408.939L278.985 407.097ZM271.007 412.431L266.766 403.982L278.401 402.157L275.559 406.106C275.57 406.109 275.582 406.113 275.594 406.117L274.438 407.942C274.384 407.925 274.329 407.908 274.274 407.89L271.007 412.431Z" fill="#BDBFC8"/>
<path fill-rule="evenodd" clip-rule="evenodd" d="M46.2234 282.846C46.7387 283.884 47.2789 284.909 47.8436 285.919L46.3242 286.768C45.7457 285.733 45.1923 284.684 44.6645 283.62L46.2234 282.846ZM49.6116 288.91C50.2252 289.892 50.8629 290.859 51.5242 291.81L50.095 292.804C49.4175 291.829 48.7642 290.838 48.1355 289.832L49.6116 288.91ZM43.4391 276.481C43.8519 277.565 44.2904 278.637 44.7541 279.697L43.1594 280.395C42.6845 279.309 42.2354 278.211 41.8126 277.101L43.4391 276.481ZM53.5762 294.612C54.2824 295.529 55.0117 296.428 55.7637 297.31L54.4391 298.439C53.6686 297.536 52.9213 296.614 52.1976 295.675L53.5762 294.612ZM41.2808 269.879C41.5881 270.998 41.9217 272.107 42.2809 273.206L40.6265 273.747C40.2586 272.622 39.9171 271.485 39.6024 270.339L41.2808 269.879ZM58.0824 299.898C58.8748 300.74 59.6892 301.563 60.5252 302.368L59.3183 303.622C58.4617 302.798 57.6272 301.954 56.8151 301.091L58.0824 299.898ZM39.7612 263.097C39.9611 264.241 40.1875 265.377 40.4401 266.504L38.7417 266.885C38.4831 265.731 38.2513 264.568 38.0467 263.397L39.7612 263.097ZM63.0854 304.713C63.9561 305.471 64.8476 306.211 65.7595 306.93L64.6819 308.296C63.7476 307.56 62.8341 306.802 61.9419 306.025L63.0854 304.713ZM38.888 256.204C38.98 257.363 39.0988 258.516 39.2439 259.662L37.5172 259.881C37.3686 258.708 37.2471 257.527 37.153 256.341L38.888 256.204ZM68.5422 309.015C69.4818 309.683 70.4408 310.331 71.4189 310.958L70.48 312.424C69.4781 311.782 68.4956 311.118 67.533 310.433L68.5422 309.015ZM38.6603 249.257C38.6447 250.419 38.656 251.577 38.6937 252.729L36.9541 252.786C36.9155 251.607 36.904 250.422 36.9199 249.234L38.6603 249.257ZM39.0704 242.314C38.9489 243.474 38.8543 244.63 38.7862 245.784L37.0487 245.681C37.1184 244.501 37.2152 243.318 37.3393 242.133L39.0704 242.314ZM74.3868 312.759C75.3874 313.334 76.4062 313.887 77.4427 314.417L76.6496 315.966C75.5882 315.423 74.5449 314.857 73.5201 314.268L74.3868 312.759ZM40.1017 235.443C39.8781 236.585 39.6809 237.727 39.5097 238.866L37.7885 238.608C37.9635 237.443 38.165 236.276 38.3936 235.108L40.1017 235.443ZM80.5761 315.928C81.6238 316.402 82.6882 316.855 83.7688 317.285L83.1257 318.902C82.0197 318.462 80.9303 317.999 79.8578 317.513L80.5761 315.928ZM41.735 228.676C41.4125 229.798 41.116 230.919 40.8452 232.041L39.1533 231.632C39.43 230.486 39.7329 229.341 40.0623 228.195L41.735 228.676ZM87.0282 318.494C88.12 318.87 89.2273 319.224 90.3496 319.555L89.8579 321.224C88.7102 320.886 87.5777 320.525 86.4607 320.139L87.0282 318.494ZM43.9384 222.077C43.5221 223.17 43.1313 224.264 42.7656 225.359L41.1147 224.808C41.4881 223.69 41.8871 222.573 42.312 221.458L43.9384 222.077ZM93.696 320.459C94.2608 320.599 94.8291 320.732 95.4009 320.86L95.0219 322.558C94.4375 322.428 93.8566 322.292 93.2793 322.149L93.696 320.459ZM46.6772 215.684C46.1752 216.737 45.6977 217.793 45.2445 218.85L43.6447 218.164C44.1071 217.086 44.5941 216.009 45.1062 214.935L46.6772 215.684ZM49.9194 209.518C49.3366 210.53 48.7775 211.545 48.2419 212.563L46.7015 211.753C47.2475 210.715 47.8173 209.68 48.4112 208.649L49.9194 209.518ZM53.626 203.605C52.9654 204.578 52.3279 205.554 51.7133 206.534L50.2386 205.61C50.8646 204.612 51.5137 203.617 52.1862 202.627L53.626 203.605ZM50.9516 196.714L60.4308 193.379L58.5798 203.256L55.6476 200.741C55.6405 200.751 55.6333 200.761 55.6262 200.771L54.222 199.742C54.2555 199.696 54.289 199.651 54.3225 199.605L50.9516 196.714Z" fill="#BDBFC8"/>
<g filter="url(#filter2_d_125_11178)">
<path d="M179.543 87.4679C179.543 133.014 142.621 169.936 97.0753 169.936C51.5295 169.936 14.6074 133.014 14.6074 87.4679C14.6074 41.9221 51.5295 5 97.0753 5C142.621 5 179.543 41.9221 179.543 87.4679Z" fill="white"/>
</g>
<path d="M76.0764 54.6477V45.3264H68.9623L68.8944 50.7596C68.8774 52.1518 68.6058 53.5441 67.9945 54.6477H67.0098V58.7735H68.9963V56.4644H75.3293V58.7735H77.3158V54.6477H76.0764ZM70.7621 50.9124L70.83 47.1431H74.0899V54.6477H69.981C70.4734 53.646 70.7281 52.4575 70.7621 50.9124Z" fill="#202020"/>
<path d="M86.121 54.7156C85.6456 54.7156 85.4249 54.4609 85.4249 54.0025V50.9633C85.4249 48.9429 84.1684 47.7883 81.9782 47.7883C79.771 47.7883 78.3957 48.9938 78.3957 50.8954V51.0143H80.3313V50.8954C80.3313 50.0635 80.8916 49.5881 81.9273 49.5881C82.946 49.5881 83.4893 50.0635 83.4893 50.9294V51.3878L81.0613 51.7274C79.2107 51.9821 78.3278 52.7801 78.3278 54.1553C78.3278 55.7174 79.5163 56.6682 81.4009 56.6682C82.4706 56.6682 83.3365 56.3456 83.9477 55.7343C84.3213 56.2097 84.9325 56.4644 85.7135 56.4644H86.6983V54.7156H86.121ZM81.5367 55.0212C80.7557 55.0212 80.2464 54.6817 80.2464 54.1383C80.2464 53.6629 80.6539 53.3234 81.4009 53.2215L83.4893 52.9159V54.0025C83.0988 54.6477 82.3857 55.0212 81.5367 55.0212Z" fill="#202020"/>
<path d="M87.7694 56.4644H89.688V53.0857H93.0667V56.4644H95.0023V48.009H93.0667V51.3369H89.688V48.009H87.7694V56.4644Z" fill="#202020"/>
<path d="M96.9717 56.4644H98.8903V53.0857H102.269V56.4644H104.205V48.009H102.269V51.3369H98.8903V48.009H96.9717V56.4644Z" fill="#202020"/>
<path d="M110.487 50.7596H108.127V47.9921H106.208V56.4644H110.487C112.371 56.4644 113.509 55.3269 113.509 53.6969V53.5271C113.509 51.8972 112.388 50.7596 110.487 50.7596ZM114.256 47.9921V56.4644H116.191V47.9921H114.256ZM111.59 53.6799C111.59 54.3251 111.217 54.7326 110.402 54.7326H108.127V52.4914H110.402C111.217 52.4914 111.59 52.9329 111.59 53.5441V53.6799Z" fill="#202020"/>
<path d="M125.224 52.9329V51.252C125.224 49.1806 123.798 47.7883 121.608 47.7883C119.401 47.7883 117.923 49.1806 117.923 51.269V53.2045C117.923 55.3099 119.401 56.6682 121.642 56.6682C123.696 56.6682 125.122 55.5306 125.224 53.8327H123.306C123.289 54.41 122.593 54.8854 121.659 54.8854C120.504 54.8854 119.842 54.2402 119.842 53.1366V52.9329H125.224ZM121.608 49.5711C122.66 49.5711 123.306 50.2502 123.306 51.3369V51.3538H119.842V51.3369C119.842 50.2502 120.504 49.5711 121.608 49.5711Z" fill="#202020"/>
<path d="M421.887 189.545C424.533 189.545 426.326 187.837 426.326 185.362V182.118C426.326 179.659 424.516 177.935 421.887 177.935C419.275 177.935 417.465 179.642 417.465 182.118V185.362C417.465 187.837 419.258 189.545 421.887 189.545ZM421.887 187.701C420.35 187.701 419.462 186.83 419.462 185.293V182.22C419.462 180.666 420.35 179.779 421.887 179.779C423.424 179.779 424.328 180.666 424.328 182.22V185.293C424.328 186.779 423.389 187.701 421.887 187.701Z" fill="#202020"/>
<path d="M432.2 181.247C431.296 181.247 430.442 181.554 429.878 182.066C429.93 180.769 430.579 180.154 432.047 179.949L433.566 179.744C434.83 179.574 435.393 179.01 435.393 177.866V177.457H433.481V177.713C433.481 177.935 433.327 178.037 432.952 178.088L431.637 178.242C429.093 178.549 428.086 180.035 428.086 183.535V185.549C428.086 188.059 429.503 189.545 431.893 189.545C434.164 189.545 435.547 188.196 435.547 185.976V184.747C435.547 182.63 434.215 181.247 432.2 181.247ZM433.618 185.908C433.618 187.103 433.02 187.735 431.859 187.735C430.647 187.735 430.015 187.018 430.015 185.601V183.842C430.544 183.313 431.21 183.023 431.91 183.023C433.071 183.023 433.618 183.62 433.618 184.884V185.908Z" fill="#202020"/>
<path d="M442.797 180.82L440.612 186.932L438.324 180.82H436.343V181.11L439.621 189.476L439.553 189.664C439.297 190.398 438.921 190.484 438.392 190.484H437.026V192.242H438.563C440.048 192.242 440.868 191.61 441.38 190.228L444.778 181.11V180.82H442.797Z" fill="#202020"/>
<path d="M451.166 180.82V184.901C450.535 184.986 450.005 185.037 449.578 185.037C448.469 185.037 447.905 184.627 447.905 183.808V180.82H445.976V184.03C445.976 185.72 447.239 186.779 449.271 186.779C449.852 186.779 450.5 186.71 451.166 186.591V189.34H453.113V180.82H451.166Z" fill="#202020"/>
<path d="M462.168 185.788V184.098C462.168 182.015 460.734 180.615 458.531 180.615C456.312 180.615 454.826 182.015 454.826 184.115V186.062C454.826 188.179 456.312 189.545 458.565 189.545C460.631 189.545 462.065 188.401 462.168 186.693H460.239C460.221 187.274 459.521 187.752 458.582 187.752C457.421 187.752 456.756 187.103 456.756 185.993V185.788H462.168ZM458.531 182.408C459.59 182.408 460.239 183.091 460.239 184.184V184.201H456.756V184.184C456.756 183.091 457.421 182.408 458.531 182.408Z" fill="#202020"/>
<path d="M463.87 189.34H465.799V185.942H469.197V189.34H471.143V180.837H469.197V184.184H465.799V180.837H463.87V189.34Z" fill="#202020"/>
<path d="M473.123 189.34H474.882L478.416 183.876V189.34H480.294V180.82H478.536L474.984 186.284V180.82H473.123V189.34Z" fill="#202020"/>
<path d="M489.345 185.788V184.098C489.345 182.015 487.911 180.615 485.709 180.615C483.489 180.615 482.004 182.015 482.004 184.115V186.062C482.004 188.179 483.489 189.545 485.743 189.545C487.809 189.545 489.243 188.401 489.345 186.693H487.416C487.399 187.274 486.699 187.752 485.76 187.752C484.599 187.752 483.933 187.103 483.933 185.993V185.788H489.345ZM485.709 182.408C486.767 182.408 487.416 183.091 487.416 184.184V184.201H483.933V184.184C483.933 183.091 484.599 182.408 485.709 182.408Z" fill="#202020"/>
<g opacity="0.59" filter="url(#filter3_d_125_11178)">
<g filter="url(#filter4_i_125_11178)">
<path fill-rule="evenodd" clip-rule="evenodd" d="M124.066 80.5815L69.9023 80.5815L69.9023 124.995L69.9023 125.281L69.9089 125.281C70.2289 132.27 82.2284 137.889 96.9841 137.889C111.74 137.889 123.739 132.27 124.059 125.281L124.066 125.281L124.066 124.995L124.066 80.5815Z" fill="url(#paint2_linear_125_11178)"/>
</g>
<path d="M124.066 80.7264C124.066 87.273 111.941 92.58 96.9841 92.58C82.0273 92.58 69.9023 87.273 69.9023 80.7264C69.9023 74.1798 82.0273 68.8728 96.9841 68.8728C111.941 68.8728 124.066 74.1798 124.066 80.7264Z" fill="url(#paint3_linear_125_11178)"/>
<path fill-rule="evenodd" clip-rule="evenodd" d="M115.865 88.5883C120.702 86.4764 123.464 83.6561 123.464 80.6972C123.464 77.7383 120.702 74.918 115.865 72.8061C111.064 70.71 104.389 69.3983 96.9841 69.3983C89.5789 69.3983 82.9044 70.71 78.1035 72.8061C73.2667 74.918 70.5042 77.7383 70.5042 80.6972C70.5042 83.6561 73.2667 86.4764 78.1035 88.5883C82.9044 90.6844 89.5789 91.9961 96.9841 91.9961C104.389 91.9961 111.064 90.6844 115.865 88.5883ZM96.9841 92.5216C111.941 92.5216 124.066 87.2276 124.066 80.6972C124.066 74.1668 111.941 68.8728 96.9841 68.8728C82.0273 68.8728 69.9023 74.1668 69.9023 80.6972C69.9023 87.2276 82.0273 92.5216 96.9841 92.5216Z" fill="url(#paint4_linear_125_11178)"/>
</g>
<g filter="url(#filter5_d_125_11178)">
<path d="M236.672 438.532C236.672 484.078 199.75 521 154.204 521C108.658 521 71.7363 484.078 71.7363 438.532C71.7363 392.987 108.658 356.064 154.204 356.064C199.75 356.064 236.672 392.987 236.672 438.532Z" fill="white"/>
</g>
<g filter="url(#filter6_d_125_11178)">
<path fill-rule="evenodd" clip-rule="evenodd" d="M176.744 431.418C175.171 431.418 173.896 432.693 173.896 434.266V484.341C173.896 485.913 175.171 487.188 176.744 487.188H177.246C178.818 487.188 180.093 485.913 180.093 484.341V434.266C180.093 432.693 178.818 431.418 177.246 431.418H176.744ZM153.73 434.074C152.158 434.074 150.883 435.349 150.883 436.921V484.34C150.883 485.913 152.158 487.188 153.73 487.188H154.232C155.805 487.188 157.079 485.913 157.079 484.34V436.921C157.079 435.349 155.805 434.074 154.232 434.074H153.73ZM139.377 454.626C139.377 453.053 140.652 451.779 142.224 451.779H142.726C144.299 451.779 145.574 453.053 145.574 454.626V484.34C145.574 485.913 144.299 487.188 142.726 487.188H142.224C140.652 487.188 139.377 485.913 139.377 484.34V454.626ZM127.867 465.249C127.867 463.676 129.142 462.401 130.715 462.401H131.216C132.789 462.401 134.064 463.676 134.064 465.249V484.34C134.064 485.913 132.789 487.188 131.216 487.188H130.715C129.142 487.188 127.867 485.913 127.867 484.34V465.249ZM162.389 444.888C162.389 443.316 163.663 442.041 165.236 442.041H165.738C167.31 442.041 168.585 443.316 168.585 444.888V484.34C168.585 485.913 167.31 487.188 165.738 487.188H165.236C163.663 487.188 162.389 485.913 162.389 484.34V444.888Z" fill="url(#paint5_linear_125_11178)" fill-opacity="0.6"/>
</g>
<path d="M127.935 411.371C130.566 411.371 132.349 409.673 132.349 407.211V403.985C132.349 401.54 130.549 399.825 127.935 399.825C125.337 399.825 123.537 401.523 123.537 403.985V407.211C123.537 409.673 125.32 411.371 127.935 411.371ZM127.935 409.537C126.407 409.537 125.524 408.671 125.524 407.143V404.087C125.524 402.542 126.407 401.659 127.935 401.659C129.463 401.659 130.363 402.542 130.363 404.087V407.143C130.363 408.62 129.429 409.537 127.935 409.537Z" fill="#202020"/>
<path d="M141.366 409.418V402.695H139.43V409.418H136.136V402.695H134.218V411.167H140.653V413.391H142.571V409.418H141.366Z" fill="#202020"/>
<path d="M150.599 407.636V405.955C150.599 403.883 149.172 402.491 146.982 402.491C144.775 402.491 143.298 403.883 143.298 405.972V407.907C143.298 410.013 144.775 411.371 147.016 411.371C149.071 411.371 150.497 410.233 150.599 408.536H148.68C148.663 409.113 147.967 409.588 147.033 409.588C145.879 409.588 145.216 408.943 145.216 407.839V407.636H150.599ZM146.982 404.274C148.035 404.274 148.68 404.953 148.68 406.04V406.057H145.216V406.04C145.216 404.953 145.879 404.274 146.982 404.274Z" fill="#202020"/>
<path d="M152.291 411.167H154.209V407.788H157.588V411.167H159.524V402.712H157.588V406.04H154.209V402.712H152.291V411.167Z" fill="#202020"/>
<path d="M166.281 406.906L168.896 402.983V402.695H166.791L164.549 406.074H163.412V402.695H161.493V411.167H163.412V407.788H164.583L166.926 411.167H169.032V410.879L166.281 406.906Z" fill="#202020"/>
<path d="M177.454 409.418C176.978 409.418 176.757 409.164 176.757 408.705V405.666C176.757 403.646 175.501 402.491 173.311 402.491C171.104 402.491 169.728 403.697 169.728 405.598V405.717H171.664V405.598C171.664 404.766 172.224 404.291 173.26 404.291C174.279 404.291 174.822 404.766 174.822 405.632V406.091L172.394 406.43C170.543 406.685 169.66 407.483 169.66 408.858C169.66 410.42 170.849 411.371 172.733 411.371C173.803 411.371 174.669 411.048 175.28 410.437C175.654 410.913 176.265 411.167 177.046 411.167H178.031V409.418H177.454ZM172.869 409.724C172.088 409.724 171.579 409.384 171.579 408.841C171.579 408.366 171.986 408.026 172.733 407.924L174.822 407.619V408.705C174.431 409.35 173.718 409.724 172.869 409.724Z" fill="#202020"/>
<mask id="mask0_125_11178" style="mask-type:alpha" maskUnits="userSpaceOnUse" x="139" y="123" width="201" height="225">
<path d="M139.717 123.287H339.092V347.436H139.717V123.287Z" fill="#C4C4C4"/>
</mask>
<g mask="url(#mask0_125_11178)">
<path fill-rule="evenodd" clip-rule="evenodd" d="M254.626 181.791C244.366 173.34 229.496 173.544 219.472 182.273L151.296 241.642C149.954 242.811 148.758 244.078 147.706 245.42H141.953V263.987H142.034C142.531 271.266 145.936 278.37 152.207 283.368L224.215 340.756C234.227 348.735 248.453 348.65 258.37 340.552L327.624 283.998C333.986 278.803 337.309 271.443 337.589 263.987H337.661V245.42H331.195C330.16 244.201 328.999 243.053 327.713 241.994L254.626 181.791Z" fill="url(#paint6_linear_125_11178)"/>
<path fill-rule="evenodd" clip-rule="evenodd" d="M254.626 164.809C244.366 156.358 229.496 156.562 219.472 165.291L151.296 224.661C149.954 225.83 148.758 227.096 147.706 228.439H141.953V247.005H142.034C142.531 254.284 145.936 261.388 152.207 266.386L224.215 323.774C234.227 331.753 248.453 331.669 258.37 323.571L327.624 267.016C333.986 261.821 337.309 254.461 337.589 247.005H337.661V228.439H331.195C330.16 227.22 328.999 226.072 327.713 225.012L254.626 164.809Z" fill="url(#paint7_linear_125_11178)"/>
<path fill-rule="evenodd" clip-rule="evenodd" d="M254.626 147.829C244.366 139.378 229.496 139.582 219.472 148.311L151.296 207.68C149.954 208.849 148.758 210.116 147.706 211.458H141.953V230.025H142.034C142.531 237.304 145.936 244.408 152.207 249.406L224.215 306.794C234.227 314.773 248.453 314.688 258.37 306.59L327.624 250.036C333.986 244.84 337.309 237.481 337.589 230.025H337.661V211.458H331.195C330.16 210.239 328.999 209.091 327.713 208.032L254.626 147.829Z" fill="url(#paint8_linear_125_11178)"/>
<path d="M219.472 131.33C229.495 122.601 244.366 122.397 254.625 130.848L327.713 191.051C340.943 201.949 340.9 222.214 327.624 233.055L258.369 289.61C248.453 297.707 234.227 297.792 224.215 289.813L152.206 232.425C138.937 221.849 138.5 201.843 151.296 190.7L219.472 131.33Z" fill="url(#paint9_linear_125_11178)"/>
<g filter="url(#filter7_f_125_11178)">
<path d="M238.433 282.784C231.56 292.193 215.736 292.34 203.088 283.114C190.44 273.887 185.759 258.78 192.632 249.371C199.505 239.963 215.329 239.815 227.977 249.042C240.625 258.268 245.306 273.375 238.433 282.784Z" fill="#7BF1DA" fill-opacity="0.4"/>
</g>
</g>
<mask id="mask1_125_11178" style="mask-type:alpha" maskUnits="userSpaceOnUse" x="141" y="124" width="197" height="172">
<path d="M219.472 131.33C229.495 122.601 244.366 122.397 254.625 130.848L327.713 191.051C340.943 201.949 340.9 222.214 327.624 233.055L258.369 289.61C248.453 297.707 234.227 297.792 224.215 289.813L152.206 232.425C138.937 221.849 138.5 201.843 151.296 190.7L219.472 131.33Z" fill="url(#paint10_linear_125_11178)"/>
</mask>
<g mask="url(#mask1_125_11178)">
<path d="M214.853 165.275C227.565 153.839 246.8 153.626 259.762 164.777L338.277 232.322L259.752 296.347C248.989 305.122 233.554 305.19 222.714 296.51L141.376 231.376L214.853 165.275Z" fill="url(#paint11_linear_125_11178)"/>
<g filter="url(#filter8_f_125_11178)">
<path d="M211.815 227.173C211.815 243.292 193.992 256.358 172.005 256.358C150.019 256.358 132.195 243.292 132.195 227.173C132.195 211.055 150.019 197.989 172.005 197.989C193.992 197.989 211.815 211.055 211.815 227.173Z" fill="#7BF1DA" fill-opacity="0.6"/>
</g>
<g opacity="0.3" filter="url(#filter9_f_125_11178)">
<path d="M223.02 310.659C223.02 301.906 230.12 294.81 238.879 294.81H241.528C250.287 294.81 257.388 301.906 257.388 310.659V330.834C257.388 339.587 250.287 346.683 241.528 346.683H238.879C230.12 346.683 223.02 339.587 223.02 330.834V310.659Z" fill="url(#paint12_linear_125_11178)"/>
</g>
<g opacity="0.7" filter="url(#filter10_f_125_11178)">
<path d="M244.674 346.328V295.184H248.784L255.508 290.703L298.094 256.358V307.129L278.669 323.555L258.497 339.235L252.146 343.341L244.674 346.328Z" fill="url(#paint13_linear_125_11178)" fill-opacity="0.8"/>
</g>
</g>
<mask id="mask2_125_11178" style="mask-type:alpha" maskUnits="userSpaceOnUse" x="142" y="124" width="196" height="172">
<path d="M219.679 131.33C229.702 122.601 244.573 122.397 254.832 130.848L327.92 191.051C341.15 201.949 341.107 222.214 327.831 233.055L258.576 289.61C248.66 297.707 234.434 297.792 224.422 289.813L152.413 232.425C139.144 221.849 138.707 201.843 151.503 190.7L219.679 131.33Z" fill="url(#paint14_linear_125_11178)"/>
</mask>
<g mask="url(#mask2_125_11178)">
<g filter="url(#filter11_f_125_11178)">
<path d="M282.678 149.149C282.678 163.75 261.147 175.587 234.587 175.587C208.027 175.587 186.496 163.75 186.496 149.149C186.496 134.548 208.027 122.711 234.587 122.711C261.147 122.711 282.678 134.548 282.678 149.149Z" fill="#7BF1DA" fill-opacity="0.5"/>
</g>
<path fill-rule="evenodd" clip-rule="evenodd" d="M336.492 212.59L336.47 211.481C336.322 204.218 333.153 197.011 326.957 191.926L253.594 131.722C243.723 123.622 229.414 123.817 219.769 132.184L151.337 191.554C145.266 196.821 142.293 204.15 142.368 211.446L142.38 212.59H142.35V262.854H142.356L142.428 263.909C142.906 270.885 146.18 277.69 152.213 282.481L224.493 339.869C234.126 347.517 247.815 347.436 257.356 339.674L326.872 283.119C332.993 278.139 336.188 271.09 336.457 263.943L336.498 262.854H336.528V212.59H336.492ZM337.602 211.458H337.661V263.986H337.589C337.309 271.442 333.973 278.802 327.587 283.997L258.072 340.552C248.118 348.649 233.838 348.734 223.788 340.755L151.509 283.367C145.214 278.369 141.797 271.265 141.298 263.986H141.217V211.458L141.235 211.458C141.233 211.27 141.233 211.083 141.235 210.896C141.311 203.47 144.417 196.059 150.595 190.699L219.027 131.329C229.088 122.6 244.015 122.396 254.313 130.847L327.676 191.051C334.14 196.356 337.448 203.881 337.602 211.458Z" fill="url(#paint15_linear_125_11178)"/>
<path d="M191.715 251.903C191.715 252.529 191.208 253.035 190.582 253.035C189.956 253.035 189.449 252.529 189.449 251.903C189.449 251.278 189.956 250.771 190.582 250.771C191.208 250.771 191.715 251.278 191.715 251.903Z" fill="white" fill-opacity="0.3"/>
<path d="M164.996 235.067C164.996 235.692 164.489 236.199 163.863 236.199C163.238 236.199 162.73 235.692 162.73 235.067C162.73 234.442 163.238 233.935 163.863 233.935C164.489 233.935 164.996 234.442 164.996 235.067Z" fill="white" fill-opacity="0.3"/>
<path d="M164.996 205.953C164.996 206.578 164.489 207.085 163.863 207.085C163.238 207.085 162.73 206.578 162.73 205.953C162.73 205.328 163.238 204.821 163.863 204.821C164.489 204.821 164.996 205.328 164.996 205.953Z" fill="white" fill-opacity="0.3"/>
<path d="M157.029 223.668C157.029 224.293 156.522 224.8 155.896 224.8C155.271 224.8 154.764 224.293 154.764 223.668C154.764 223.043 155.271 222.536 155.896 222.536C156.522 222.536 157.029 223.043 157.029 223.668Z" fill="white" fill-opacity="0.3"/>
<path d="M152.148 210.976C152.148 211.601 151.641 212.108 151.016 212.108C150.39 212.108 149.883 211.601 149.883 210.976C149.883 210.351 150.39 209.844 151.016 209.844C151.641 209.844 152.148 210.351 152.148 210.976Z" fill="white" fill-opacity="0.3"/>
<path d="M186.064 201.732C186.064 202.358 185.557 202.864 184.932 202.864C184.306 202.864 183.799 202.358 183.799 201.732C183.799 201.107 184.306 200.6 184.932 200.6C185.557 200.6 186.064 201.107 186.064 201.732Z" fill="white" fill-opacity="0.3"/>
<path d="M209.701 200.6C209.701 201.225 209.194 201.732 208.568 201.732C207.943 201.732 207.436 201.225 207.436 200.6C207.436 199.975 207.943 199.468 208.568 199.468C209.194 199.468 209.701 199.975 209.701 200.6Z" fill="white" fill-opacity="0.3"/>
<path d="M214.836 212.231C214.836 212.856 214.329 213.363 213.703 213.363C213.077 213.363 212.57 212.856 212.57 212.231C212.57 211.606 213.077 211.099 213.703 211.099C214.329 211.099 214.836 211.606 214.836 212.231Z" fill="white" fill-opacity="0.3"/>
<path d="M192.85 178.083C192.85 178.709 192.342 179.216 191.717 179.216C191.091 179.216 190.584 178.709 190.584 178.083C190.584 177.458 191.091 176.951 191.717 176.951C192.342 176.951 192.85 177.458 192.85 178.083Z" fill="white" fill-opacity="0.3"/>
<path d="M204.15 159.737C204.15 160.362 203.643 160.869 203.018 160.869C202.392 160.869 201.885 160.362 201.885 159.737C201.885 159.112 202.392 158.605 203.018 158.605C203.643 158.605 204.15 159.112 204.15 159.737Z" fill="white" fill-opacity="0.3"/>
<path d="M208.568 179.216C208.568 179.841 208.061 180.348 207.436 180.348C206.81 180.348 206.303 179.841 206.303 179.216C206.303 178.591 206.81 178.084 207.436 178.084C208.061 178.084 208.568 178.591 208.568 179.216Z" fill="white" fill-opacity="0.3"/>
<path d="M177.127 178.083C177.127 178.709 176.62 179.216 175.994 179.216C175.369 179.216 174.861 178.709 174.861 178.083C174.861 177.458 175.369 176.951 175.994 176.951C176.62 176.951 177.127 177.458 177.127 178.083Z" fill="white" fill-opacity="0.3"/>
<path d="M162.732 192.554C162.732 193.179 162.225 193.686 161.6 193.686C160.974 193.686 160.467 193.179 160.467 192.554C160.467 191.929 160.974 191.422 161.6 191.422C162.225 191.422 162.732 191.929 162.732 192.554Z" fill="white" fill-opacity="0.3"/>
<path d="M152.148 199.468C152.148 200.093 151.641 200.6 151.016 200.6C150.39 200.6 149.883 200.093 149.883 199.468C149.883 198.843 150.39 198.336 151.016 198.336C151.641 198.336 152.148 198.843 152.148 199.468Z" fill="white" fill-opacity="0.3"/>
<path d="M221.002 276.748C221.002 277.373 220.495 277.88 219.869 277.88C219.244 277.88 218.736 277.373 218.736 276.748C218.736 276.123 219.244 275.616 219.869 275.616C220.495 275.616 221.002 276.123 221.002 276.748Z" fill="white" fill-opacity="0.3"/>
<path d="M250.807 277.88C250.807 278.506 250.299 279.012 249.674 279.012C249.048 279.012 248.541 278.506 248.541 277.88C248.541 277.255 249.048 276.748 249.674 276.748C250.299 276.748 250.807 277.255 250.807 277.88Z" fill="white" fill-opacity="0.3"/>
<path d="M250.807 261.135C250.807 261.76 250.299 262.267 249.674 262.267C249.048 262.267 248.541 261.76 248.541 261.135C248.541 260.51 249.048 260.003 249.674 260.003C250.299 260.003 250.807 260.51 250.807 261.135Z" fill="white" fill-opacity="0.3"/>
<path d="M232.566 251.903C232.566 252.529 232.059 253.035 231.434 253.035C230.808 253.035 230.301 252.529 230.301 251.903C230.301 251.278 230.808 250.771 231.434 250.771C232.059 250.771 232.566 251.278 232.566 251.903Z" fill="white" fill-opacity="0.3"/>
<path d="M273.672 254.168C273.672 254.793 273.165 255.3 272.539 255.3C271.913 255.3 271.406 254.793 271.406 254.168C271.406 253.542 271.913 253.036 272.539 253.036C273.165 253.036 273.672 253.542 273.672 254.168Z" fill="white" fill-opacity="0.3"/>
<path d="M267.764 264.945C267.764 265.57 267.256 266.077 266.631 266.077C266.005 266.077 265.498 265.57 265.498 264.945C265.498 264.32 266.005 263.813 266.631 263.813C267.256 263.813 267.764 264.32 267.764 264.945Z" fill="white" fill-opacity="0.3"/>
<path d="M264.166 239.784C264.166 240.41 263.659 240.916 263.033 240.916C262.408 240.916 261.9 240.41 261.9 239.784C261.9 239.159 262.408 238.652 263.033 238.652C263.659 238.652 264.166 239.159 264.166 239.784Z" fill="white" fill-opacity="0.3"/>
<path d="M245.154 219.758C245.154 220.383 244.647 220.89 244.021 220.89C243.396 220.89 242.889 220.383 242.889 219.758C242.889 219.133 243.396 218.626 244.021 218.626C244.647 218.626 245.154 219.133 245.154 219.758Z" fill="white" fill-opacity="0.3"/>
<path d="M288.57 232.335C288.57 232.96 288.063 233.467 287.438 233.467C286.812 233.467 286.305 232.96 286.305 232.335C286.305 231.71 286.812 231.203 287.438 231.203C288.063 231.203 288.57 231.71 288.57 232.335Z" fill="white" fill-opacity="0.3"/>
<path d="M294.736 249.638C294.736 250.264 294.229 250.77 293.604 250.77C292.978 250.77 292.471 250.264 292.471 249.638C292.471 249.013 292.978 248.506 293.604 248.506C294.229 248.506 294.736 249.013 294.736 249.638Z" fill="white" fill-opacity="0.3"/>
<path d="M284.717 260.002C284.717 260.628 284.21 261.134 283.584 261.134C282.958 261.134 282.451 260.628 282.451 260.002C282.451 259.377 282.958 258.87 283.584 258.87C284.21 258.87 284.717 259.377 284.717 260.002Z" fill="white" fill-opacity="0.3"/>
<path d="M307.068 227.174C307.068 227.799 306.561 228.306 305.936 228.306C305.31 228.306 304.803 227.799 304.803 227.174C304.803 226.549 305.31 226.042 305.936 226.042C306.561 226.042 307.068 226.549 307.068 227.174Z" fill="white" fill-opacity="0.3"/>
<path d="M312.461 208.712C312.461 209.337 311.954 209.844 311.328 209.844C310.702 209.844 310.195 209.337 310.195 208.712C310.195 208.086 310.702 207.58 311.328 207.58C311.954 207.58 312.461 208.086 312.461 208.712Z" fill="white" fill-opacity="0.3"/>
<path d="M320.686 229.438C320.686 230.063 320.178 230.57 319.553 230.57C318.927 230.57 318.42 230.063 318.42 229.438C318.42 228.813 318.927 228.306 319.553 228.306C320.178 228.306 320.686 228.813 320.686 229.438Z" fill="white" fill-opacity="0.3"/>
<path d="M328.135 216.088C328.135 216.713 327.628 217.22 327.002 217.22C326.376 217.22 325.869 216.713 325.869 216.088C325.869 215.462 326.376 214.956 327.002 214.956C327.628 214.956 328.135 215.462 328.135 216.088Z" fill="white" fill-opacity="0.3"/>
<path d="M328.135 198.336C328.135 198.961 327.628 199.468 327.002 199.468C326.376 199.468 325.869 198.961 325.869 198.336C325.869 197.71 326.376 197.204 327.002 197.204C327.628 197.204 328.135 197.71 328.135 198.336Z" fill="white" fill-opacity="0.3"/>
<path d="M297.006 174.455C297.006 175.08 296.499 175.587 295.873 175.587C295.247 175.587 294.74 175.08 294.74 174.455C294.74 173.829 295.247 173.323 295.873 173.323C296.499 173.323 297.006 173.829 297.006 174.455Z" fill="white" fill-opacity="0.3"/>
<path d="M290.84 197.203C290.84 197.829 290.333 198.335 289.707 198.335C289.081 198.335 288.574 197.829 288.574 197.203C288.574 196.578 289.081 196.071 289.707 196.071C290.333 196.071 290.84 196.578 290.84 197.203Z" fill="white" fill-opacity="0.3"/>
<path d="M285.852 187.448C285.852 188.073 285.344 188.58 284.719 188.58C284.093 188.58 283.586 188.073 283.586 187.448C283.586 186.823 284.093 186.316 284.719 186.316C285.344 186.316 285.852 186.823 285.852 187.448Z" fill="white" fill-opacity="0.3"/>
<path d="M272.541 191.422C272.541 192.047 272.034 192.554 271.408 192.554C270.783 192.554 270.275 192.047 270.275 191.422C270.275 190.797 270.783 190.29 271.408 190.29C272.034 190.29 272.541 190.797 272.541 191.422Z" fill="white" fill-opacity="0.3"/>
<path d="M270.029 181.48C270.029 182.105 269.522 182.612 268.896 182.612C268.271 182.612 267.764 182.105 267.764 181.48C267.764 180.854 268.271 180.348 268.896 180.348C269.522 180.348 270.029 180.854 270.029 181.48Z" fill="white" fill-opacity="0.3"/>
<path d="M268.895 162.002C268.895 162.627 268.387 163.134 267.762 163.134C267.136 163.134 266.629 162.627 266.629 162.002C266.629 161.377 267.136 160.87 267.762 160.87C268.387 160.87 268.895 161.377 268.895 162.002Z" fill="white" fill-opacity="0.3"/>
<path d="M268.895 150.192C268.895 150.817 268.387 151.324 267.762 151.324C267.136 151.324 266.629 150.817 266.629 150.192C266.629 149.566 267.136 149.06 267.762 149.06C268.387 149.06 268.895 149.566 268.895 150.192Z" fill="white" fill-opacity="0.3"/>
<path d="M248.539 145.056C248.539 145.681 248.032 146.188 247.406 146.188C246.781 146.188 246.273 145.681 246.273 145.056C246.273 144.43 246.781 143.924 247.406 143.924C248.032 143.924 248.539 144.43 248.539 145.056Z" fill="white" fill-opacity="0.3"/>
<path d="M247.42 159.737C247.42 160.362 246.913 160.869 246.287 160.869C245.661 160.869 245.154 160.362 245.154 159.737C245.154 159.112 245.661 158.605 246.287 158.605C246.913 158.605 247.42 159.112 247.42 159.737Z" fill="white" fill-opacity="0.3"/>
<path d="M255.125 176.952C255.125 177.577 254.618 178.084 253.992 178.084C253.367 178.084 252.859 177.577 252.859 176.952C252.859 176.327 253.367 175.82 253.992 175.82C254.618 175.82 255.125 176.327 255.125 176.952Z" fill="white" fill-opacity="0.3"/>
<path d="M227.637 168.222C227.637 168.848 227.13 169.354 226.504 169.354C225.878 169.354 225.371 168.848 225.371 168.222C225.371 167.597 225.878 167.09 226.504 167.09C227.13 167.09 227.637 167.597 227.637 168.222Z" fill="white" fill-opacity="0.3"/>
<path d="M233.701 149.059C233.701 149.684 233.194 150.191 232.568 150.191C231.943 150.191 231.436 149.684 231.436 149.059C231.436 148.434 231.943 147.927 232.568 147.927C233.194 147.927 233.701 148.434 233.701 149.059Z" fill="white" fill-opacity="0.3"/>
<path d="M221.002 145.056C221.002 145.681 220.495 146.188 219.869 146.188C219.244 146.188 218.736 145.681 218.736 145.056C218.736 144.43 219.244 143.924 219.869 143.924C220.495 143.924 221.002 144.43 221.002 145.056Z" fill="white" fill-opacity="0.3"/>
<path d="M198.396 193.687C198.396 194.312 197.889 194.819 197.264 194.819C196.638 194.819 196.131 194.312 196.131 193.687C196.131 193.061 196.638 192.554 197.264 192.554C197.889 192.554 198.396 193.061 198.396 193.687Z" fill="white" fill-opacity="0.3"/>
<path d="M264.166 275.616C264.166 276.241 263.659 276.748 263.033 276.748C262.408 276.748 261.9 276.241 261.9 275.616C261.9 274.991 262.408 274.484 263.033 274.484C263.659 274.484 264.166 274.991 264.166 275.616Z" fill="white" fill-opacity="0.3"/>
<path d="M261.898 248.507C261.898 249.132 261.391 249.639 260.766 249.639C260.14 249.639 259.633 249.132 259.633 248.507C259.633 247.882 260.14 247.375 260.766 247.375C261.391 247.375 261.898 247.882 261.898 248.507Z" fill="white" fill-opacity="0.3"/>
<path d="M284.717 242.049C284.717 242.674 284.21 243.181 283.584 243.181C282.958 243.181 282.451 242.674 282.451 242.049C282.451 241.423 282.958 240.917 283.584 240.917C284.21 240.917 284.717 241.423 284.717 242.049Z" fill="white" fill-opacity="0.3"/>
<path d="M297.006 219.758C297.006 220.383 296.499 220.89 295.873 220.89C295.247 220.89 294.74 220.383 294.74 219.758C294.74 219.133 295.247 218.626 295.873 218.626C296.499 218.626 297.006 219.133 297.006 219.758Z" fill="white" fill-opacity="0.3"/>
<path fill-rule="evenodd" clip-rule="evenodd" d="M219.044 143.938L232.768 149.425L247.112 144.305L269.292 149.583V181.261L272.421 190.643L283.566 186.769L295.896 173.66L327.354 197.762V216.406L320.613 229.621L319.604 229.107L326.026 216.518L312.143 209.467L319.356 229.17L318.292 229.559L311.225 210.257L307.021 227.529L293.755 249.366L284.45 251.83V261.896L271.657 254.948L263.322 240.906L261.484 249.398L232.433 252.376L249.147 265.204V260.237L267.658 264.379L263.363 277.542L250.28 267.5V278.742L219.692 277.161L190.29 252.417L163.245 235.687L155.174 223.719L150.33 210.542L162.234 206.173L149.928 199.898L161.735 192.214L175.729 176.936H191.945L206.614 178.89L202.716 159.158L225.989 167.847L219.044 143.938ZM225.496 168.872L204.221 160.928L207.728 178.685L225.496 168.872ZM206.845 181.111L207.968 200.404L198.09 192.552L206.845 181.111ZM197.486 191.477L192.752 178.185L206.279 179.987L197.486 191.477ZM191.508 178.068H176.81L185.737 200.732L196.63 192.449L191.508 178.068ZM186 201.955L183.199 216.653L207.624 201.577L197.295 193.366L186 201.955ZM209.165 201.474L214.609 211.267L182.675 218.33L164.576 235.178L190.784 251.392H230.93L260.551 248.356L262.824 237.849L272.172 253.596L284.45 240.793V250.659L292.642 248.489L286.588 232.105L295.546 219.467L310.789 207.849L325.81 198.005L296.298 175.395L290.445 198.792L271.613 191.803L268.284 181.821L253.921 177.976L246.578 160.155V145.698L232.746 150.635L220.779 145.851L227.518 169.049L207.908 179.878L209.165 201.474ZM247.711 145.611V159.931L254.532 176.486L268.159 162.382V150.477L247.711 145.611ZM268.159 164.012L255.413 177.203L268.159 180.616V164.012ZM294.881 176.392L289.841 196.537L284.583 187.341L294.881 176.392ZM283.625 187.947L273.739 191.384L288.783 196.967L283.625 187.947ZM326.222 199.089L312.244 208.249L326.222 215.348V199.089ZM310.188 209.731L296.915 219.847L306.138 226.367L310.188 209.731ZM305.161 227.063L296.093 220.653L288.573 231.263L305.161 227.063ZM287.972 232.583L305.289 228.199L293.514 247.581L287.972 232.583ZM283.317 250.959V243.61L273.869 253.462L283.317 250.959ZM273.587 254.708L283.317 259.992V252.13L273.587 254.708ZM230.084 252.524H192.175L219.701 275.689L230.084 252.524ZM220.766 276.083L249.147 277.55V266.631L231.182 252.843L220.766 276.083ZM163.746 234.403L180.522 218.786L156.622 223.839L163.746 234.403ZM156.671 222.671L181.916 217.335L184.84 201.994L162.772 193.512L164.227 206.351L156.671 222.671ZM163.083 192.419L184.486 200.645L175.784 178.552L163.083 192.419ZM161.645 193.624L162.965 205.274L152.187 199.779L161.645 193.624ZM162.558 207.26L155.742 221.981L151.784 211.215L162.558 207.26ZM185.545 216.536L208.4 202.429L212.881 210.49L185.545 216.536ZM250.28 266.073L262.783 275.669L266.195 265.211L250.28 261.651V266.073ZM250.48 197.257L244.86 221.124L229.969 202.592L250.48 197.257ZM231.948 203.247L244.29 218.605L248.947 198.826L231.948 203.247Z" fill="white" fill-opacity="0.12"/>
</g>
<path fill-rule="evenodd" clip-rule="evenodd" d="M208.602 203.872L203.533 208.67L210.16 223.295C213.804 231.339 216.544 238.162 216.249 238.457C215.954 238.753 210.068 234.711 203.17 229.473L190.627 219.95L185.42 224.665C182.556 227.259 180.475 229.677 180.796 230.036C181.117 230.396 191.573 238.129 204.031 247.222L226.681 263.753L231.615 259.645C234.33 257.385 236.561 254.887 236.573 254.094C236.585 253.3 234.58 247.99 232.119 242.292C229.657 236.594 226.813 230.001 225.801 227.642C224.353 224.27 224.317 223.636 225.63 224.679C238.253 234.722 249.097 242.492 250.485 242.492C252.294 242.492 260.988 234.191 260.055 233.354C256.359 230.04 215.245 199.021 214.579 199.043C214.079 199.06 211.389 201.233 208.602 203.872Z" fill="white" fill-opacity="0.4"/>
<path d="M246.978 168.092L252.385 162.653C255.359 159.662 258.213 157.361 258.727 157.54C259.979 157.975 305.3 194.743 305.3 195.324C305.3 195.574 302.741 197.849 299.615 200.378L293.928 204.977L281.276 194.763C274.316 189.146 268.622 185.092 268.622 185.755C268.622 186.417 271.231 193.616 274.421 201.753L280.221 216.547L274.891 221.229C271.96 223.803 269.208 225.907 268.775 225.903C267.566 225.891 222.504 191.136 222.279 190.043C222.17 189.512 224.475 187 227.399 184.459L232.715 179.841L245.926 190.274C253.192 196.012 259.288 200.563 259.473 200.387C259.659 200.211 256.923 192.873 253.394 184.08L246.978 168.092Z" fill="white" fill-opacity="0.4"/>
<path d="M215.873 238.366C215.873 238.369 215.874 238.366 215.873 238.354C215.87 238.318 215.86 238.249 215.835 238.141C215.816 238.062 215.792 237.969 215.761 237.863C215.874 237.924 215.97 237.973 216.05 238.009C216.144 238.052 216.198 238.071 216.222 238.076C216.235 238.079 216.22 238.074 216.188 238.075C216.161 238.076 216.059 238.085 215.968 238.177C215.889 238.255 215.877 238.339 215.875 238.35L215.875 238.35C215.874 238.358 215.874 238.363 215.873 238.366ZM215.873 238.366C216.083 238.462 216.212 238.495 216.249 238.457C216.544 238.162 213.804 231.339 210.16 223.295L215.873 238.366ZM208.875 204.161L208.876 204.16C210.263 202.847 211.624 201.651 212.698 200.784C213.236 200.349 213.696 200.002 214.049 199.763C214.226 199.643 214.369 199.556 214.477 199.5C214.504 199.485 214.527 199.475 214.545 199.466C214.548 199.468 214.551 199.47 214.554 199.471C214.642 199.524 214.77 199.606 214.938 199.719C215.271 199.942 215.745 200.273 216.342 200.699C217.534 201.549 219.207 202.77 221.21 204.248C225.214 207.204 230.53 211.182 235.941 215.265C246.644 223.339 257.686 231.799 259.719 233.587C259.707 233.635 259.681 233.708 259.63 233.811C259.497 234.08 259.248 234.447 258.897 234.888C258.2 235.764 257.159 236.866 256.024 237.95C254.89 239.032 253.675 240.085 252.636 240.864C252.116 241.254 251.648 241.57 251.26 241.787C251.066 241.895 250.9 241.975 250.762 242.027C250.619 242.08 250.53 242.095 250.485 242.095C250.485 242.095 250.48 242.095 250.47 242.093C250.458 242.092 250.442 242.089 250.422 242.084C250.38 242.073 250.325 242.056 250.255 242.03C250.116 241.978 249.937 241.897 249.717 241.785C249.278 241.561 248.703 241.225 248.003 240.785C246.603 239.906 244.731 238.626 242.502 237.029C238.047 233.836 232.185 229.386 225.877 224.368L225.877 224.368C225.707 224.233 225.551 224.118 225.411 224.031C225.278 223.948 225.131 223.871 224.984 223.839C224.83 223.806 224.585 223.809 224.416 224.02C224.282 224.187 224.276 224.395 224.284 224.528C224.3 224.817 224.419 225.23 224.605 225.745C224.795 226.273 225.073 226.954 225.435 227.799C226.448 230.158 229.292 236.752 231.754 242.45C232.983 245.294 234.097 248.04 234.902 250.172C235.304 251.239 235.628 252.148 235.85 252.838C235.961 253.183 236.045 253.469 236.101 253.69C236.16 253.924 236.176 254.047 236.175 254.088C236.175 254.107 236.165 254.174 236.106 254.303C236.05 254.426 235.963 254.578 235.844 254.758C235.605 255.117 235.253 255.559 234.811 256.055C233.927 257.044 232.706 258.22 231.361 259.339L231.361 259.339L226.664 263.249L204.265 246.901C198.037 242.355 192.309 238.149 188.099 235.035C185.993 233.477 184.268 232.194 183.049 231.277C182.44 230.818 181.958 230.452 181.619 230.19C181.449 230.059 181.317 229.955 181.223 229.879C181.212 229.87 181.202 229.862 181.192 229.854C181.217 229.796 181.258 229.718 181.32 229.618C181.498 229.327 181.801 228.929 182.215 228.448C183.039 227.49 184.263 226.249 185.687 224.96L190.649 220.466L202.929 229.79L203.17 229.473L202.929 229.79C206.382 232.411 209.583 234.735 211.961 236.368C213.148 237.184 214.135 237.83 214.847 238.256C215.201 238.468 215.497 238.631 215.72 238.733C215.829 238.782 215.938 238.826 216.037 238.849C216.085 238.861 216.15 238.873 216.222 238.87C216.289 238.867 216.421 238.848 216.531 238.738C216.629 238.64 216.653 238.523 216.661 238.471C216.67 238.409 216.669 238.348 216.666 238.299C216.659 238.2 216.637 238.083 216.609 237.961C216.551 237.711 216.449 237.375 216.311 236.968C216.035 236.15 215.603 235.01 215.051 233.634C213.944 230.879 212.346 227.157 210.522 223.131L210.522 223.131L204.012 208.764L208.875 204.161ZM181.161 229.942C181.16 229.95 181.159 229.954 181.159 229.954C181.159 229.955 181.159 229.951 181.161 229.942Z" stroke="white" stroke-opacity="0.5" stroke-width="0.795034"/>
<path d="M252.855 163.12L252.855 163.12L247.756 168.25L254.009 183.833L254.009 183.833C255.775 188.233 257.343 192.271 258.447 195.233C258.999 196.713 259.437 197.93 259.726 198.79C259.87 199.219 259.98 199.569 260.049 199.822C260.083 199.946 260.112 200.065 260.128 200.165C260.136 200.212 260.145 200.281 260.144 200.355C260.144 200.392 260.141 200.454 260.124 200.527C260.109 200.589 260.066 200.737 259.93 200.866C259.929 200.867 259.929 200.867 259.928 200.868L259.473 200.387C259.441 200.417 259.238 200.309 258.886 200.082L252.855 163.12ZM252.855 163.12C254.329 161.637 255.768 160.331 256.894 159.423C257.46 158.968 257.932 158.623 258.284 158.407C258.417 158.326 258.521 158.27 258.598 158.234C258.599 158.234 258.6 158.235 258.601 158.235C258.712 158.31 258.867 158.42 259.065 158.565C259.459 158.853 260.005 159.267 260.683 159.789C262.038 160.835 263.908 162.306 266.12 164.064C270.542 167.58 276.323 172.233 282.065 176.892C287.808 181.551 293.51 186.213 297.776 189.747C299.91 191.514 301.682 192.997 302.919 194.055C303.539 194.585 304.02 195.005 304.345 195.3C304.369 195.321 304.393 195.342 304.415 195.363C304.404 195.373 304.394 195.383 304.383 195.394C304.108 195.669 303.701 196.046 303.189 196.501C302.169 197.409 300.755 198.603 299.198 199.863C299.198 199.863 299.198 199.863 299.198 199.863L293.928 204.125L281.692 194.248L281.692 194.248C278.205 191.434 275.031 189.007 272.723 187.364C271.572 186.545 270.623 185.911 269.954 185.521C269.628 185.331 269.331 185.176 269.096 185.095C268.998 185.061 268.81 185.003 268.607 185.028C268.49 185.042 268.309 185.092 268.157 185.251C268 185.418 267.959 185.614 267.959 185.755C267.959 185.874 267.984 186.003 268.005 186.096C268.029 186.205 268.062 186.334 268.103 186.478C268.184 186.768 268.302 187.145 268.45 187.597C268.748 188.501 269.176 189.724 269.702 191.177C270.756 194.083 272.208 197.922 273.804 201.995L273.804 201.995L279.435 216.356M252.855 163.12L279.435 216.356M279.435 216.356L274.454 220.731C274.454 220.731 274.454 220.731 274.454 220.731C272.997 222.011 271.588 223.17 270.494 224.007C269.945 224.426 269.484 224.757 269.14 224.981C268.999 225.073 268.885 225.142 268.797 225.189C268.701 225.134 268.574 225.056 268.415 224.954C268.031 224.706 267.494 224.338 266.822 223.863C265.48 222.914 263.625 221.555 261.427 219.917C257.033 216.643 251.283 212.266 245.563 207.854C239.842 203.442 234.154 198.997 229.882 195.588C227.746 193.883 225.968 192.439 224.718 191.39C224.092 190.864 223.605 190.442 223.273 190.137C223.172 190.045 223.089 189.966 223.022 189.9C223.058 189.84 223.105 189.769 223.164 189.685C223.387 189.369 223.734 188.949 224.19 188.452C225.097 187.463 226.386 186.217 227.833 184.959L232.735 180.701L245.515 190.794L279.435 216.356ZM268.633 186.339C268.633 186.338 268.636 186.339 268.643 186.341C268.637 186.34 268.634 186.339 268.633 186.339ZM258.461 158.146C258.459 158.145 258.458 158.145 258.458 158.145C258.458 158.145 258.459 158.145 258.461 158.146ZM222.851 189.72C222.841 189.706 222.845 189.709 222.855 189.724C222.853 189.722 222.852 189.721 222.851 189.72ZM222.93 190.077C222.928 190.085 222.927 190.089 222.927 190.089C222.926 190.089 222.927 190.085 222.93 190.077ZM268.942 225.266C268.957 225.271 268.959 225.274 268.945 225.267C268.944 225.267 268.943 225.267 268.942 225.266ZM258.821 200.383C258.821 200.385 258.821 200.386 258.821 200.385L258.821 200.383Z" stroke="white" stroke-opacity="0.5" stroke-width="1.32506"/>
<circle cx="181.374" cy="230.177" r="1.83142" fill="white"/>
<circle cx="226.55" cy="263.142" r="1.83142" fill="white"/>
<circle cx="236.316" cy="254.595" r="1.83142" fill="white"/>
<circle cx="216.783" cy="238.723" r="1.83142" fill="white"/>
<circle cx="224.107" cy="224.072" r="1.83142" fill="white"/>
<circle cx="259.515" cy="200.874" r="1.83142" fill="white"/>
<circle cx="268.062" cy="185.002" r="1.83142" fill="white"/>
<circle cx="249.747" cy="242.386" r="1.83142" fill="white"/>
<circle cx="259.515" cy="233.839" r="1.83142" fill="white"/>
<circle cx="191.144" cy="220.409" r="1.83142" fill="white"/>
<circle cx="203.351" cy="209.421" r="1.83142" fill="white"/>
<circle cx="214.341" cy="199.653" r="1.83142" fill="white"/>
<circle cx="222.886" cy="189.886" r="1.83142" fill="white"/>
<circle cx="268.062" cy="225.293" r="1.83142" fill="white"/>
<circle cx="280.271" cy="215.525" r="1.83142" fill="white"/>
<circle cx="293.701" cy="204.537" r="1.83142" fill="white"/>
<circle cx="304.691" cy="194.77" r="1.83142" fill="white"/>
<circle cx="232.656" cy="180.118" r="1.83142" fill="white"/>
<circle cx="248.527" cy="167.909" r="1.83142" fill="white"/>
<circle cx="258.294" cy="158.141" r="1.83142" fill="white"/>
<path d="M325.59 85.6244L326.106 84.768L325.59 85.6244ZM374.886 142.292L373.438 130.837L364.241 137.819L374.886 142.292ZM196.836 86.3316C197.265 85.9021 197.731 85.477 198.232 85.0567L196.946 83.5248C196.404 83.9795 195.895 84.4438 195.422 84.9174L196.836 86.3316ZM201.337 82.797C202.376 82.1339 203.504 81.4895 204.715 80.866L203.799 79.0879C202.539 79.7366 201.358 80.4114 200.261 81.1112L201.337 82.797ZM208.271 79.1968C209.431 78.6994 210.646 78.2193 211.912 77.7578L211.228 75.8787C209.929 76.352 208.679 76.8457 207.483 77.3587L208.271 79.1968ZM215.636 76.5005C216.86 76.1177 218.123 75.7509 219.42 75.4012L218.899 73.4701C217.578 73.8265 216.29 74.2006 215.039 74.5917L215.636 76.5005ZM223.249 74.4421C224.51 74.1492 225.798 73.8716 227.111 73.6099L226.721 71.6485C225.387 71.9142 224.078 72.1962 222.796 72.494L223.249 74.4421ZM231.001 72.8942C232.285 72.6768 233.589 72.4742 234.911 72.287L234.631 70.3067C233.291 70.4965 231.969 70.7018 230.667 70.9222L231.001 72.8942ZM238.839 71.7822C240.138 71.632 241.451 71.4964 242.777 71.3757L242.596 69.3839C241.254 69.506 239.924 69.6434 238.609 69.7955L238.839 71.7822ZM246.719 71.0641C248.025 70.9762 249.342 70.9027 250.669 70.8441L250.58 68.8461C249.239 68.9053 247.906 68.9796 246.584 69.0686L246.719 71.0641ZM254.625 70.7144C255.939 70.6862 257.259 70.6727 258.585 70.6742L258.587 68.6742C257.246 68.6727 255.911 68.6864 254.582 68.7149L254.625 70.7144ZM262.546 70.7233C263.862 70.7544 265.182 70.8006 266.505 70.862L266.597 68.8642C265.26 68.802 263.924 68.7553 262.593 68.7238L262.546 70.7233ZM270.455 71.091C271.769 71.1825 273.085 71.2893 274.4 71.4119L274.585 69.4206C273.255 69.2965 271.924 69.1884 270.594 69.0959L270.455 71.091ZM278.336 71.8266C279.646 71.9808 280.955 72.1509 282.26 72.3375L282.543 70.3576C281.221 70.1687 279.896 69.9964 278.57 69.8403L278.336 71.8266ZM286.168 72.9472C287.47 73.1676 288.767 73.4049 290.058 73.6593L290.444 71.697C289.136 71.4391 287.821 71.1986 286.502 70.9753L286.168 72.9472ZM293.927 74.478C295.216 74.7699 296.497 75.0797 297.77 75.4076L298.269 73.4709C296.977 73.1379 295.676 72.8236 294.369 72.5274L293.927 74.478ZM301.58 76.4526C302.848 76.8221 304.106 77.2106 305.351 77.6184L305.974 75.7177C304.707 75.3028 303.428 74.9079 302.139 74.5324L301.58 76.4526ZM309.077 78.9107C310.317 79.3655 311.543 79.8407 312.753 80.3367L313.512 78.4862C312.278 77.9804 311.029 77.4962 309.766 77.033L309.077 78.9107ZM316.372 81.9047C317.573 82.4543 318.756 83.0259 319.919 83.6199L320.829 81.8388C319.639 81.2313 318.431 80.6473 317.204 80.0861L316.372 81.9047ZM323.383 85.4894C323.952 85.814 324.515 86.1444 325.073 86.4808L326.106 84.768C325.534 84.4232 324.957 84.0846 324.374 83.7521L323.383 85.4894ZM325.073 86.4808C325.672 86.8417 326.264 87.2086 326.851 87.5811L327.923 85.8929C327.324 85.5122 326.718 85.1371 326.106 84.768L325.073 86.4808ZM330.321 89.8977C331.468 90.7013 332.591 91.5256 333.689 92.3675L334.906 90.7805C333.786 89.9215 332.64 89.0802 331.468 88.2596L330.321 89.8977ZM336.953 94.9799C338.03 95.879 339.082 96.7936 340.109 97.7207L341.449 96.2363C340.404 95.2923 339.332 94.3606 338.234 93.4443L336.953 94.9799ZM343.157 100.579C344.168 101.561 345.151 102.554 346.108 103.552L347.552 102.169C346.58 101.154 345.58 100.144 344.552 99.1449L343.157 100.579ZM348.954 106.623C349.897 107.675 350.812 108.73 351.698 109.784L353.229 108.496C352.329 107.427 351.401 106.356 350.443 105.288L348.954 106.623ZM354.351 113.033C355.233 114.147 356.083 115.254 356.903 116.351L358.505 115.153C357.674 114.043 356.812 112.92 355.919 111.792L354.351 113.033ZM359.374 119.749C360.203 120.921 360.996 122.074 361.754 123.202L363.414 122.087C362.648 120.947 361.846 119.78 361.006 118.593L359.374 119.749ZM364.05 126.706C364.84 127.941 365.583 129.133 366.281 130.271L367.986 129.227C367.283 128.078 366.533 126.876 365.735 125.628L364.05 126.706ZM368.445 133.87C369.236 135.207 369.948 136.43 370.586 137.52L372.312 136.511C371.677 135.424 370.961 134.195 370.166 132.851L368.445 133.87Z" fill="#BDBFC8"/>
<defs>
<filter id="filter0_d_125_11178" x="352.055" y="132.839" width="194.936" height="194.935" filterUnits="userSpaceOnUse" color-interpolation-filters="sRGB">
<feFlood flood-opacity="0" result="BackgroundImageFix"/>
<feColorMatrix in="SourceAlpha" type="matrix" values="0 0 0 0 0 0 0 0 0 0 0 0 0 0 0 0 0 0 127 0" result="hardAlpha"/>
<feOffset dy="9.69272"/>
<feGaussianBlur stdDeviation="7.26954"/>
<feColorMatrix type="matrix" values="0 0 0 0 0 0 0 0 0 0 0 0 0 0 0 0 0 0 0.1 0"/>
<feBlend mode="normal" in2="BackgroundImageFix" result="effect1_dropShadow_125_11178"/>
<feBlend mode="normal" in="SourceGraphic" in2="effect1_dropShadow_125_11178" result="shape"/>
</filter>
<filter id="filter1_d_125_11178" x="410.445" y="207.842" width="83.5371" height="64.9045" filterUnits="userSpaceOnUse" color-interpolation-filters="sRGB">
<feFlood flood-opacity="0" result="BackgroundImageFix"/>
<feColorMatrix in="SourceAlpha" type="matrix" values="0 0 0 0 0 0 0 0 0 0 0 0 0 0 0 0 0 0 127 0" result="hardAlpha"/>
<feOffset dx="1" dy="2"/>
<feGaussianBlur stdDeviation="2"/>
<feColorMatrix type="matrix" values="0 0 0 0 0 0 0 0 0 0 0 0 0 0 0 0 0 0 0.18 0"/>
<feBlend mode="normal" in2="BackgroundImageFix" result="effect1_dropShadow_125_11178"/>
<feBlend mode="normal" in="SourceGraphic" in2="effect1_dropShadow_125_11178" result="shape"/>
</filter>
<filter id="filter2_d_125_11178" x="0.422939" y="0.271839" width="193.305" height="193.305" filterUnits="userSpaceOnUse" color-interpolation-filters="sRGB">
<feFlood flood-opacity="0" result="BackgroundImageFix"/>
<feColorMatrix in="SourceAlpha" type="matrix" values="0 0 0 0 0 0 0 0 0 0 0 0 0 0 0 0 0 0 127 0" result="hardAlpha"/>
<feOffset dy="9.45632"/>
<feGaussianBlur stdDeviation="7.09224"/>
<feColorMatrix type="matrix" values="0 0 0 0 0 0 0 0 0 0 0 0 0 0 0 0 0 0 0.1 0"/>
<feBlend mode="normal" in2="BackgroundImageFix" result="effect1_dropShadow_125_11178"/>
<feBlend mode="normal" in="SourceGraphic" in2="effect1_dropShadow_125_11178" result="shape"/>
</filter>
<filter id="filter3_d_125_11178" x="65.9538" y="66.2404" width="64.6925" height="79.5453" filterUnits="userSpaceOnUse" color-interpolation-filters="sRGB">
<feFlood flood-opacity="0" result="BackgroundImageFix"/>
<feColorMatrix in="SourceAlpha" type="matrix" values="0 0 0 0 0 0 0 0 0 0 0 0 0 0 0 0 0 0 127 0" result="hardAlpha"/>
<feOffset dx="1.31618" dy="2.63235"/>
<feGaussianBlur stdDeviation="2.63235"/>
<feColorMatrix type="matrix" values="0 0 0 0 0 0 0 0 0 0 0 0 0 0 0 0 0 0 0.18 0"/>
<feBlend mode="normal" in2="BackgroundImageFix" result="effect1_dropShadow_125_11178"/>
<feBlend mode="normal" in="SourceGraphic" in2="effect1_dropShadow_125_11178" result="shape"/>
</filter>
<filter id="filter4_i_125_11178" x="69.9023" y="80.5815" width="54.1631" height="61.0897" filterUnits="userSpaceOnUse" color-interpolation-filters="sRGB">
<feFlood flood-opacity="0" result="BackgroundImageFix"/>
<feBlend mode="normal" in="SourceGraphic" in2="BackgroundImageFix" result="shape"/>
<feColorMatrix in="SourceAlpha" type="matrix" values="0 0 0 0 0 0 0 0 0 0 0 0 0 0 0 0 0 0 127 0" result="hardAlpha"/>
<feOffset dy="3.78253"/>
<feGaussianBlur stdDeviation="1.89126"/>
<feComposite in2="hardAlpha" operator="arithmetic" k2="-1" k3="1"/>
<feColorMatrix type="matrix" values="0 0 0 0 0.5875 0 0 0 0 0.62875 0 0 0 0 1 0 0 0 1 0"/>
<feBlend mode="normal" in2="shape" result="effect1_innerShadow_125_11178"/>
</filter>
<filter id="filter5_d_125_11178" x="57.4996" y="351.319" width="193.409" height="193.409" filterUnits="userSpaceOnUse" color-interpolation-filters="sRGB">
<feFlood flood-opacity="0" result="BackgroundImageFix"/>
<feColorMatrix in="SourceAlpha" type="matrix" values="0 0 0 0 0 0 0 0 0 0 0 0 0 0 0 0 0 0 127 0" result="hardAlpha"/>
<feOffset dy="9.49112"/>
<feGaussianBlur stdDeviation="7.11834"/>
<feColorMatrix type="matrix" values="0 0 0 0 0 0 0 0 0 0 0 0 0 0 0 0 0 0 0.1 0"/>
<feBlend mode="normal" in2="BackgroundImageFix" result="effect1_dropShadow_125_11178"/>
<feBlend mode="normal" in="SourceGraphic" in2="effect1_dropShadow_125_11178" result="shape"/>
</filter>
<filter id="filter6_d_125_11178" x="123.919" y="428.786" width="62.755" height="66.2989" filterUnits="userSpaceOnUse" color-interpolation-filters="sRGB">
<feFlood flood-opacity="0" result="BackgroundImageFix"/>
<feColorMatrix in="SourceAlpha" type="matrix" values="0 0 0 0 0 0 0 0 0 0 0 0 0 0 0 0 0 0 127 0" result="hardAlpha"/>
<feOffset dx="1.31618" dy="2.63235"/>
<feGaussianBlur stdDeviation="2.63235"/>
<feColorMatrix type="matrix" values="0 0 0 0 0 0 0 0 0 0 0 0 0 0 0 0 0 0 0.18 0"/>
<feBlend mode="normal" in2="BackgroundImageFix" result="effect1_dropShadow_125_11178"/>
<feBlend mode="normal" in="SourceGraphic" in2="effect1_dropShadow_125_11178" result="shape"/>
</filter>
<filter id="filter7_f_125_11178" x="162.963" y="215.716" width="105.139" height="100.723" filterUnits="userSpaceOnUse" color-interpolation-filters="sRGB">
<feFlood flood-opacity="0" result="BackgroundImageFix"/>
<feBlend mode="normal" in="SourceGraphic" in2="BackgroundImageFix" result="shape"/>
<feGaussianBlur stdDeviation="13.2506" result="effect1_foregroundBlur_125_11178"/>
</filter>
<filter id="filter8_f_125_11178" x="79.193" y="144.986" width="185.625" height="164.374" filterUnits="userSpaceOnUse" color-interpolation-filters="sRGB">
<feFlood flood-opacity="0" result="BackgroundImageFix"/>
<feBlend mode="normal" in="SourceGraphic" in2="BackgroundImageFix" result="shape"/>
<feGaussianBlur stdDeviation="26.5011" result="effect1_foregroundBlur_125_11178"/>
</filter>
<filter id="filter9_f_125_11178" x="213.744" y="285.534" width="52.919" height="70.4238" filterUnits="userSpaceOnUse" color-interpolation-filters="sRGB">
<feFlood flood-opacity="0" result="BackgroundImageFix"/>
<feBlend mode="normal" in="SourceGraphic" in2="BackgroundImageFix" result="shape"/>
<feGaussianBlur stdDeviation="4.6377" result="effect1_foregroundBlur_125_11178"/>
</filter>
<filter id="filter10_f_125_11178" x="228.773" y="240.458" width="85.2223" height="121.771" filterUnits="userSpaceOnUse" color-interpolation-filters="sRGB">
<feFlood flood-opacity="0" result="BackgroundImageFix"/>
<feBlend mode="normal" in="SourceGraphic" in2="BackgroundImageFix" result="shape"/>
<feGaussianBlur stdDeviation="7.95034" result="effect1_foregroundBlur_125_11178"/>
</filter>
<filter id="filter11_f_125_11178" x="159.995" y="96.2103" width="149.185" height="105.878" filterUnits="userSpaceOnUse" color-interpolation-filters="sRGB">
<feFlood flood-opacity="0" result="BackgroundImageFix"/>
<feBlend mode="normal" in="SourceGraphic" in2="BackgroundImageFix" result="shape"/>
<feGaussianBlur stdDeviation="13.2506" result="effect1_foregroundBlur_125_11178"/>
</filter>
<linearGradient id="paint0_linear_125_11178" x1="409.626" y1="222.175" x2="464.302" y2="253.716" gradientUnits="userSpaceOnUse">
<stop stop-color="#7ECAA6"/>
<stop offset="0.264085" stop-color="#61BDD1"/>
<stop offset="0.576639" stop-color="#CF6DDD"/>
<stop offset="0.846103" stop-color="#4061F8"/>
</linearGradient>
<linearGradient id="paint1_linear_125_11178" x1="462.187" y1="211.848" x2="490.195" y2="228.006" gradientUnits="userSpaceOnUse">
<stop stop-color="#7ECAA6"/>
<stop offset="0.264085" stop-color="#61BDD1"/>
<stop offset="0.576639" stop-color="#CF6DDD"/>
<stop offset="0.846103" stop-color="#4061F8"/>
</linearGradient>
<linearGradient id="paint2_linear_125_11178" x1="70.3974" y1="80.1913" x2="126.197" y2="124.412" gradientUnits="userSpaceOnUse">
<stop stop-color="#7ECAA6"/>
<stop offset="0.264085" stop-color="#61BDD1"/>
<stop offset="0.576639" stop-color="#CF6DDD"/>
<stop offset="0.846103" stop-color="#4061F8"/>
</linearGradient>
<linearGradient id="paint3_linear_125_11178" x1="88.2791" y1="68.5486" x2="117.866" y2="88.1271" gradientUnits="userSpaceOnUse">
<stop stop-color="#F4F4F4"/>
<stop offset="0.479167" stop-color="white"/>
<stop offset="1" stop-color="#FCFCFC"/>
</linearGradient>
<linearGradient id="paint4_linear_125_11178" x1="70.3974" y1="68.7118" x2="89.7754" y2="105.926" gradientUnits="userSpaceOnUse">
<stop stop-color="#7ECAA6"/>
<stop offset="0.264085" stop-color="#61BDD1"/>
<stop offset="0.576639" stop-color="#CF6DDD"/>
<stop offset="0.846103" stop-color="#4061F8"/>
</linearGradient>
<linearGradient id="paint5_linear_125_11178" x1="128.345" y1="431.039" x2="182.531" y2="473.586" gradientUnits="userSpaceOnUse">
<stop stop-color="#7ECAA6"/>
<stop offset="0.264085" stop-color="#61BDD1"/>
<stop offset="0.576639" stop-color="#CF6DDD"/>
<stop offset="0.846103" stop-color="#4061F8"/>
</linearGradient>
<linearGradient id="paint6_linear_125_11178" x1="143.825" y1="226.675" x2="294.889" y2="311.567" gradientUnits="userSpaceOnUse">
<stop stop-color="#6BF0D7"/>
<stop offset="0.458585" stop-color="#6BF0D5"/>
<stop offset="1" stop-color="#50B8AF"/>
</linearGradient>
<linearGradient id="paint7_linear_125_11178" x1="143.825" y1="209.693" x2="294.889" y2="294.585" gradientUnits="userSpaceOnUse">
<stop stop-color="#59C9CA"/>
<stop offset="0.46875" stop-color="#58C8C9"/>
<stop offset="1" stop-color="#429AA0"/>
</linearGradient>
<linearGradient id="paint8_linear_125_11178" x1="207.71" y1="159.219" x2="294.861" y2="277.575" gradientUnits="userSpaceOnUse">
<stop stop-color="#4EAFB5"/>
<stop offset="0.46875" stop-color="#4DB0B5"/>
<stop offset="1" stop-color="#3884A6"/>
</linearGradient>
<linearGradient id="paint9_linear_125_11178" x1="207.71" y1="142.238" x2="294.861" y2="260.594" gradientUnits="userSpaceOnUse">
<stop stop-color="#5FE2BF"/>
<stop offset="1" stop-color="#276491"/>
</linearGradient>
<linearGradient id="paint10_linear_125_11178" x1="207.71" y1="142.238" x2="294.861" y2="260.594" gradientUnits="userSpaceOnUse">
<stop stop-color="#5FE2BF"/>
<stop offset="1" stop-color="#276491"/>
</linearGradient>
<linearGradient id="paint11_linear_125_11178" x1="172.588" y1="213.054" x2="291.048" y2="271.535" gradientUnits="userSpaceOnUse">
<stop stop-color="#62F0CD"/>
<stop offset="1" stop-color="#286592"/>
</linearGradient>
<linearGradient id="paint12_linear_125_11178" x1="257.387" y1="320.746" x2="223.02" y2="320.746" gradientUnits="userSpaceOnUse">
<stop stop-color="#568DAC"/>
<stop offset="1" stop-color="#48A6B0" stop-opacity="0"/>
</linearGradient>
<linearGradient id="paint13_linear_125_11178" x1="244.674" y1="320.942" x2="298.087" y2="301.32" gradientUnits="userSpaceOnUse">
<stop stop-color="#5995B0"/>
<stop offset="1" stop-color="#5995B0" stop-opacity="0"/>
</linearGradient>
<linearGradient id="paint14_linear_125_11178" x1="207.917" y1="142.238" x2="295.068" y2="260.594" gradientUnits="userSpaceOnUse">
<stop stop-color="#5FE2BF"/>
<stop offset="1" stop-color="#276491"/>
</linearGradient>
<linearGradient id="paint15_linear_125_11178" x1="239.439" y1="124.643" x2="239.439" y2="346.683" gradientUnits="userSpaceOnUse">
<stop stop-color="#70BBB2"/>
<stop offset="1" stop-color="#84CAC1"/>
</linearGradient>
</defs>
</svg>
