<svg width="233" height="259" viewBox="0 0 233 259" fill="none" xmlns="http://www.w3.org/2000/svg">
<mask id="mask0_125_10461" style="mask-type:alpha" maskUnits="userSpaceOnUse" x="9" y="21" width="213" height="238">
<path d="M9.59961 21.8955L221.935 21.8955V259H9.59961L9.59961 21.8955Z" fill="#C4C4C4"/>
</mask>
<g mask="url(#mask0_125_10461)">
<path fill-rule="evenodd" clip-rule="evenodd" d="M131.975 83.7804C121.049 74.841 105.211 75.0567 94.5361 84.2902L21.9292 147.091C20.4997 148.328 19.2253 149.668 18.1054 151.088H11.9785V170.727H12.0646C12.5936 178.427 16.2199 185.942 22.8984 191.229L99.5876 251.934C110.25 260.374 125.402 260.284 135.962 251.719L209.719 191.895C216.494 186.399 220.034 178.614 220.331 170.727H220.408V151.088H213.522C212.419 149.798 211.183 148.584 209.813 147.463L131.975 83.7804Z" fill="url(#paint0_linear_125_10461)"/>
<path fill-rule="evenodd" clip-rule="evenodd" d="M131.975 65.8176C121.049 56.8782 105.211 57.0938 94.5361 66.3274L21.9292 129.129C20.4997 130.365 19.2253 131.705 18.1054 133.125H11.9785V152.764H12.0646C12.5936 160.465 16.2199 167.979 22.8984 173.266L99.5876 233.971C110.25 242.411 125.402 242.321 135.962 233.756L209.719 173.932C216.494 168.437 220.034 160.651 220.331 152.764H220.408V133.125H213.522C212.419 131.835 211.183 130.621 209.813 129.501L131.975 65.8176Z" fill="url(#paint1_linear_125_10461)"/>
<path fill-rule="evenodd" clip-rule="evenodd" d="M131.975 47.8556C121.049 38.9162 105.211 39.1319 94.5361 48.3654L21.9292 111.167C20.4997 112.403 19.2253 113.743 18.1054 115.163H11.9785V134.803H12.0646C12.5936 142.503 16.2199 150.017 22.8984 155.304L99.5876 216.009C110.25 224.449 125.402 224.359 135.962 215.794L209.719 155.971C216.494 150.475 220.034 142.689 220.331 134.803H220.408V115.163H213.522C212.419 113.873 211.183 112.659 209.813 111.539L131.975 47.8556Z" fill="url(#paint2_linear_125_10461)"/>
<path d="M94.5373 30.4029C105.213 21.1694 121.05 20.9537 131.976 29.8931L209.815 93.5761C223.904 105.104 223.859 126.54 209.72 138.008L135.964 197.831C125.403 206.397 110.252 206.487 99.5888 198.046L22.8996 137.341C8.76729 126.154 8.30255 104.992 21.9303 93.2042L94.5373 30.4029Z" fill="url(#paint3_linear_125_10461)"/>
<g filter="url(#filter0_f_125_10461)">
<path d="M114.73 190.611C107.411 200.563 90.5575 200.719 77.0877 190.959C63.6178 181.199 58.6321 165.219 65.9517 155.267C73.2713 145.314 90.1246 145.158 103.594 154.918C117.064 164.678 122.05 180.658 114.73 190.611Z" fill="#7BF1DA" fill-opacity="0.4"/>
</g>
</g>
<mask id="mask1_125_10461" style="mask-type:alpha" maskUnits="userSpaceOnUse" x="11" y="23" width="210" height="182">
<path d="M94.5373 30.4029C105.213 21.1694 121.05 20.9537 131.976 29.8931L209.815 93.5761C223.904 105.104 223.859 126.54 209.72 138.008L135.964 197.831C125.403 206.397 110.252 206.487 99.5888 198.046L22.8996 137.341C8.76729 126.154 8.30255 104.992 21.9303 93.2042L94.5373 30.4029Z" fill="url(#paint4_linear_125_10461)"/>
</mask>
<g mask="url(#mask1_125_10461)">
<path d="M89.6178 66.3099C103.156 54.2133 123.641 53.9878 137.446 65.7834L221.065 137.232L137.435 204.958C125.973 214.241 109.534 214.313 97.9902 205.131L11.365 136.232L89.6178 66.3099Z" fill="url(#paint5_linear_125_10461)"/>
<g filter="url(#filter1_f_125_10461)">
<path d="M86.3832 131.787C86.3832 148.837 67.4011 162.658 43.9856 162.658C20.57 162.658 1.58789 148.837 1.58789 131.787C1.58789 114.737 20.57 100.915 43.9856 100.915C67.4011 100.915 86.3832 114.737 86.3832 131.787Z" fill="#7BF1DA" fill-opacity="0.6"/>
</g>
<g opacity="0.3" filter="url(#filter2_f_125_10461)">
<path d="M98.3164 220.097C98.3164 210.838 105.878 203.332 115.207 203.332H118.028C127.357 203.332 134.919 210.838 134.919 220.097V241.438C134.919 250.697 127.357 258.203 118.028 258.203H115.207C105.878 258.203 98.3164 250.697 98.3164 241.438V220.097Z" fill="url(#paint6_linear_125_10461)"/>
</g>
<g opacity="0.7" filter="url(#filter3_f_125_10461)">
<path d="M121.377 257.828V203.728H125.754L132.916 198.988L178.27 162.658V216.364L157.582 233.739L136.098 250.325L129.335 254.669L121.377 257.828Z" fill="url(#paint7_linear_125_10461)" fill-opacity="0.8"/>
</g>
</g>
<mask id="mask2_125_10461" style="mask-type:alpha" maskUnits="userSpaceOnUse" x="12" y="23" width="209" height="182">
<path d="M94.758 30.4029C105.433 21.1694 121.27 20.9537 132.197 29.8931L210.035 93.5761C224.125 105.104 224.079 126.54 209.94 138.008L136.184 197.831C125.623 206.397 110.472 206.487 99.8095 198.046L23.1203 137.341C8.988 126.154 8.52325 104.992 22.1511 93.2042L94.758 30.4029Z" fill="url(#paint8_linear_125_10461)"/>
</mask>
<g mask="url(#mask2_125_10461)">
<g filter="url(#filter4_f_125_10461)">
<path d="M161.852 49.2519C161.852 64.6969 138.922 77.2176 110.635 77.2176C82.3487 77.2176 59.418 64.6969 59.418 49.2519C59.418 33.8068 82.3487 21.2861 110.635 21.2861C138.922 21.2861 161.852 33.8068 161.852 49.2519Z" fill="#7BF1DA" fill-opacity="0.5"/>
</g>
<path fill-rule="evenodd" clip-rule="evenodd" d="M219.164 116.36L219.14 115.187C218.982 107.504 215.608 99.8802 209.009 94.5012L130.877 30.8182C120.364 22.2493 105.125 22.4561 94.8541 31.3068L21.9739 94.1081C15.5079 99.6799 12.3412 107.432 12.4211 115.15L12.4337 116.36H12.4018V169.529H12.4084L12.4853 170.645C12.9943 178.025 16.4808 185.223 22.9068 190.29L99.8847 250.995C110.144 259.086 124.723 259 134.884 250.789L208.918 190.966C215.438 185.698 218.84 178.241 219.127 170.682L219.171 169.529H219.203V116.36H219.164ZM220.347 115.162H220.409V170.727H220.332C220.034 178.614 216.481 186.399 209.68 191.895L135.646 251.718C125.045 260.284 109.837 260.373 99.1342 251.933L22.1563 191.228C15.4526 185.941 11.8127 178.427 11.2817 170.727H11.1953L11.1953 115.163L11.2147 115.162C11.2127 114.964 11.2127 114.766 11.2147 114.568C11.2961 106.713 14.603 98.8737 21.183 93.2038L94.0632 30.4026C104.779 21.169 120.676 20.9534 131.643 29.8928L209.775 93.5757C216.659 99.1874 220.182 107.147 220.347 115.162Z" fill="url(#paint9_linear_125_10461)"/>
<path d="M64.9754 157.946C64.9754 158.607 64.4353 159.143 63.7689 159.143C63.1026 159.143 62.5625 158.607 62.5625 157.946C62.5625 157.284 63.1026 156.748 63.7689 156.748C64.4353 156.748 64.9754 157.284 64.9754 157.946Z" fill="white" fill-opacity="0.3"/>
<path d="M36.5203 140.136C36.5203 140.797 35.9802 141.333 35.3139 141.333C34.6476 141.333 34.1074 140.797 34.1074 140.136C34.1074 139.475 34.6476 138.938 35.3139 138.938C35.9802 138.938 36.5203 139.475 36.5203 140.136Z" fill="white" fill-opacity="0.3"/>
<path d="M36.5203 109.339C36.5203 110 35.9802 110.537 35.3139 110.537C34.6476 110.537 34.1074 110 34.1074 109.339C34.1074 108.678 34.6476 108.142 35.3139 108.142C35.9802 108.142 36.5203 108.678 36.5203 109.339Z" fill="white" fill-opacity="0.3"/>
<path d="M28.0359 128.078C28.0359 128.74 27.4958 129.276 26.8295 129.276C26.1632 129.276 25.623 128.74 25.623 128.078C25.623 127.417 26.1632 126.881 26.8295 126.881C27.4958 126.881 28.0359 127.417 28.0359 128.078Z" fill="white" fill-opacity="0.3"/>
<path d="M22.8367 114.653C22.8367 115.314 22.2966 115.85 21.6303 115.85C20.964 115.85 20.4238 115.314 20.4238 114.653C20.4238 113.991 20.964 113.455 21.6303 113.455C22.2966 113.455 22.8367 113.991 22.8367 114.653Z" fill="white" fill-opacity="0.3"/>
<path d="M58.9578 104.875C58.9578 105.537 58.4177 106.073 57.7514 106.073C57.0851 106.073 56.5449 105.537 56.5449 104.875C56.5449 104.214 57.0851 103.678 57.7514 103.678C58.4177 103.678 58.9578 104.214 58.9578 104.875Z" fill="white" fill-opacity="0.3"/>
<path d="M84.1297 103.677C84.1297 104.338 83.5895 104.874 82.9232 104.874C82.2569 104.874 81.7168 104.338 81.7168 103.677C81.7168 103.016 82.2569 102.479 82.9232 102.479C83.5895 102.479 84.1297 103.016 84.1297 103.677Z" fill="white" fill-opacity="0.3"/>
<path d="M89.6004 115.981C89.6004 116.642 89.0603 117.178 88.3939 117.178C87.7276 117.178 87.1875 116.642 87.1875 115.981C87.1875 115.319 87.7276 114.783 88.3939 114.783C89.0603 114.783 89.6004 115.319 89.6004 115.981Z" fill="white" fill-opacity="0.3"/>
<path d="M66.1844 79.8586C66.1844 80.52 65.6442 81.0561 64.9779 81.0561C64.3116 81.0561 63.7715 80.52 63.7715 79.8586C63.7715 79.1973 64.3116 78.6611 64.9779 78.6611C65.6442 78.6611 66.1844 79.1973 66.1844 79.8586Z" fill="white" fill-opacity="0.3"/>
<path d="M78.2195 60.4524C78.2195 61.1137 77.6794 61.6499 77.0131 61.6499C76.3468 61.6499 75.8066 61.1137 75.8066 60.4524C75.8066 59.791 76.3468 59.2549 77.0131 59.2549C77.6794 59.2549 78.2195 59.791 78.2195 60.4524Z" fill="white" fill-opacity="0.3"/>
<path d="M82.9246 81.0569C82.9246 81.7182 82.3845 82.2544 81.7182 82.2544C81.0519 82.2544 80.5117 81.7182 80.5117 81.0569C80.5117 80.3955 81.0519 79.8594 81.7182 79.8594C82.3845 79.8594 82.9246 80.3955 82.9246 81.0569Z" fill="white" fill-opacity="0.3"/>
<path d="M49.4383 79.8586C49.4383 80.52 48.8981 81.0561 48.2318 81.0561C47.5655 81.0561 47.0254 80.52 47.0254 79.8586C47.0254 79.1973 47.5655 78.6611 48.2318 78.6611C48.8981 78.6611 49.4383 79.1973 49.4383 79.8586Z" fill="white" fill-opacity="0.3"/>
<path d="M34.1082 95.1662C34.1082 95.8276 33.5681 96.3637 32.9018 96.3637C32.2355 96.3637 31.6953 95.8276 31.6953 95.1662C31.6953 94.5049 32.2355 93.9688 32.9018 93.9688C33.5681 93.9688 34.1082 94.5049 34.1082 95.1662Z" fill="white" fill-opacity="0.3"/>
<path d="M22.8367 102.48C22.8367 103.141 22.2966 103.677 21.6303 103.677C20.964 103.677 20.4238 103.141 20.4238 102.48C20.4238 101.818 20.964 101.282 21.6303 101.282C22.2966 101.282 22.8367 101.818 22.8367 102.48Z" fill="white" fill-opacity="0.3"/>
<path d="M96.1668 184.227C96.1668 184.888 95.6267 185.424 94.9604 185.424C94.2941 185.424 93.7539 184.888 93.7539 184.227C93.7539 183.565 94.2941 183.029 94.9604 183.029C95.6267 183.029 96.1668 183.565 96.1668 184.227Z" fill="white" fill-opacity="0.3"/>
<path d="M127.909 185.424C127.909 186.085 127.369 186.622 126.703 186.622C126.036 186.622 125.496 186.085 125.496 185.424C125.496 184.763 126.036 184.227 126.703 184.227C127.369 184.227 127.909 184.763 127.909 185.424Z" fill="white" fill-opacity="0.3"/>
<path d="M127.909 167.711C127.909 168.373 127.369 168.909 126.703 168.909C126.036 168.909 125.496 168.373 125.496 167.711C125.496 167.05 126.036 166.514 126.703 166.514C127.369 166.514 127.909 167.05 127.909 167.711Z" fill="white" fill-opacity="0.3"/>
<path d="M108.481 157.946C108.481 158.607 107.941 159.143 107.275 159.143C106.609 159.143 106.068 158.607 106.068 157.946C106.068 157.284 106.609 156.748 107.275 156.748C107.941 156.748 108.481 157.284 108.481 157.946Z" fill="white" fill-opacity="0.3"/>
<path d="M152.261 160.341C152.261 161.002 151.72 161.539 151.054 161.539C150.388 161.539 149.848 161.002 149.848 160.341C149.848 159.68 150.388 159.144 151.054 159.144C151.72 159.144 152.261 159.68 152.261 160.341Z" fill="white" fill-opacity="0.3"/>
<path d="M145.968 171.74C145.968 172.402 145.427 172.938 144.761 172.938C144.095 172.938 143.555 172.402 143.555 171.74C143.555 171.079 144.095 170.543 144.761 170.543C145.427 170.543 145.968 171.079 145.968 171.74Z" fill="white" fill-opacity="0.3"/>
<path d="M142.138 145.126C142.138 145.788 141.597 146.324 140.931 146.324C140.265 146.324 139.725 145.788 139.725 145.126C139.725 144.465 140.265 143.929 140.931 143.929C141.597 143.929 142.138 144.465 142.138 145.126Z" fill="white" fill-opacity="0.3"/>
<path d="M121.888 123.942C121.888 124.603 121.347 125.139 120.681 125.139C120.015 125.139 119.475 124.603 119.475 123.942C119.475 123.28 120.015 122.744 120.681 122.744C121.347 122.744 121.888 123.28 121.888 123.942Z" fill="white" fill-opacity="0.3"/>
<path d="M168.128 137.246C168.128 137.908 167.588 138.444 166.921 138.444C166.255 138.444 165.715 137.908 165.715 137.246C165.715 136.585 166.255 136.049 166.921 136.049C167.588 136.049 168.128 136.585 168.128 137.246Z" fill="white" fill-opacity="0.3"/>
<path d="M174.694 155.549C174.694 156.21 174.154 156.747 173.488 156.747C172.821 156.747 172.281 156.21 172.281 155.549C172.281 154.888 172.821 154.352 173.488 154.352C174.154 154.352 174.694 154.888 174.694 155.549Z" fill="white" fill-opacity="0.3"/>
<path d="M164.024 166.513C164.024 167.174 163.484 167.71 162.818 167.71C162.151 167.71 161.611 167.174 161.611 166.513C161.611 165.852 162.151 165.315 162.818 165.315C163.484 165.315 164.024 165.852 164.024 166.513Z" fill="white" fill-opacity="0.3"/>
<path d="M187.827 131.787C187.827 132.449 187.287 132.985 186.621 132.985C185.954 132.985 185.414 132.449 185.414 131.787C185.414 131.126 185.954 130.59 186.621 130.59C187.287 130.59 187.827 131.126 187.827 131.787Z" fill="white" fill-opacity="0.3"/>
<path d="M193.569 112.257C193.569 112.918 193.029 113.455 192.363 113.455C191.696 113.455 191.156 112.918 191.156 112.257C191.156 111.596 191.696 111.06 192.363 111.06C193.029 111.06 193.569 111.596 193.569 112.257Z" fill="white" fill-opacity="0.3"/>
<path d="M202.331 134.182C202.331 134.843 201.791 135.379 201.124 135.379C200.458 135.379 199.918 134.843 199.918 134.182C199.918 133.521 200.458 132.984 201.124 132.984C201.791 132.984 202.331 133.521 202.331 134.182Z" fill="white" fill-opacity="0.3"/>
<path d="M210.263 120.06C210.263 120.721 209.722 121.257 209.056 121.257C208.39 121.257 207.85 120.721 207.85 120.06C207.85 119.398 208.39 118.862 209.056 118.862C209.722 118.862 210.263 119.398 210.263 120.06Z" fill="white" fill-opacity="0.3"/>
<path d="M210.263 101.281C210.263 101.943 209.722 102.479 209.056 102.479C208.39 102.479 207.85 101.943 207.85 101.281C207.85 100.62 208.39 100.084 209.056 100.084C209.722 100.084 210.263 100.62 210.263 101.281Z" fill="white" fill-opacity="0.3"/>
<path d="M177.112 76.0198C177.112 76.6811 176.572 77.2173 175.906 77.2173C175.239 77.2173 174.699 76.6811 174.699 76.0198C174.699 75.3584 175.239 74.8223 175.906 74.8223C176.572 74.8223 177.112 75.3584 177.112 76.0198Z" fill="white" fill-opacity="0.3"/>
<path d="M170.544 100.084C170.544 100.746 170.004 101.282 169.337 101.282C168.671 101.282 168.131 100.746 168.131 100.084C168.131 99.4229 168.671 98.8867 169.337 98.8867C170.004 98.8867 170.544 99.4229 170.544 100.084Z" fill="white" fill-opacity="0.3"/>
<path d="M165.231 89.7649C165.231 90.4262 164.691 90.9624 164.025 90.9624C163.359 90.9624 162.818 90.4262 162.818 89.7649C162.818 89.1035 163.359 88.5674 164.025 88.5674C164.691 88.5674 165.231 89.1035 165.231 89.7649Z" fill="white" fill-opacity="0.3"/>
<path d="M151.057 93.968C151.057 94.6294 150.517 95.1655 149.851 95.1655C149.185 95.1655 148.645 94.6294 148.645 93.968C148.645 93.3066 149.185 92.7705 149.851 92.7705C150.517 92.7705 151.057 93.3066 151.057 93.968Z" fill="white" fill-opacity="0.3"/>
<path d="M148.382 83.4514C148.382 84.1128 147.842 84.6489 147.175 84.6489C146.509 84.6489 145.969 84.1128 145.969 83.4514C145.969 82.79 146.509 82.2539 147.175 82.2539C147.842 82.2539 148.382 82.79 148.382 83.4514Z" fill="white" fill-opacity="0.3"/>
<path d="M147.173 62.8479C147.173 63.5092 146.633 64.0454 145.966 64.0454C145.3 64.0454 144.76 63.5092 144.76 62.8479C144.76 62.1865 145.3 61.6504 145.966 61.6504C146.633 61.6504 147.173 62.1865 147.173 62.8479Z" fill="white" fill-opacity="0.3"/>
<path d="M147.173 50.3547C147.173 51.0161 146.633 51.5522 145.966 51.5522C145.3 51.5522 144.76 51.0161 144.76 50.3547C144.76 49.6934 145.3 49.1572 145.966 49.1572C146.633 49.1572 147.173 49.6934 147.173 50.3547Z" fill="white" fill-opacity="0.3"/>
<path d="M125.493 44.9221C125.493 45.5835 124.953 46.1196 124.287 46.1196C123.62 46.1196 123.08 45.5835 123.08 44.9221C123.08 44.2607 123.62 43.7246 124.287 43.7246C124.953 43.7246 125.493 44.2607 125.493 44.9221Z" fill="white" fill-opacity="0.3"/>
<path d="M124.302 60.4524C124.302 61.1137 123.761 61.6499 123.095 61.6499C122.429 61.6499 121.889 61.1137 121.889 60.4524C121.889 59.791 122.429 59.2549 123.095 59.2549C123.761 59.2549 124.302 59.791 124.302 60.4524Z" fill="white" fill-opacity="0.3"/>
<path d="M132.507 78.6623C132.507 79.3237 131.967 79.8598 131.3 79.8598C130.634 79.8598 130.094 79.3237 130.094 78.6623C130.094 78.001 130.634 77.4648 131.3 77.4648C131.967 77.4648 132.507 78.001 132.507 78.6623Z" fill="white" fill-opacity="0.3"/>
<path d="M103.233 69.428C103.233 70.0893 102.693 70.6255 102.027 70.6255C101.36 70.6255 100.82 70.0893 100.82 69.428C100.82 68.7666 101.36 68.2305 102.027 68.2305C102.693 68.2305 103.233 68.7666 103.233 69.428Z" fill="white" fill-opacity="0.3"/>
<path d="M109.692 49.1565C109.692 49.8178 109.152 50.354 108.486 50.354C107.819 50.354 107.279 49.8178 107.279 49.1565C107.279 48.4951 107.819 47.959 108.486 47.959C109.152 47.959 109.692 48.4951 109.692 49.1565Z" fill="white" fill-opacity="0.3"/>
<path d="M96.1668 44.9221C96.1668 45.5835 95.6267 46.1196 94.9604 46.1196C94.2941 46.1196 93.7539 45.5835 93.7539 44.9221C93.7539 44.2607 94.2941 43.7246 94.9604 43.7246C95.6267 43.7246 96.1668 44.2607 96.1668 44.9221Z" fill="white" fill-opacity="0.3"/>
<path d="M72.0906 96.3635C72.0906 97.0249 71.5505 97.561 70.8842 97.561C70.2179 97.561 69.6777 97.0249 69.6777 96.3635C69.6777 95.7022 70.2179 95.166 70.8842 95.166C71.5505 95.166 72.0906 95.7022 72.0906 96.3635Z" fill="white" fill-opacity="0.3"/>
<path d="M142.138 183.029C142.138 183.69 141.597 184.226 140.931 184.226C140.265 184.226 139.725 183.69 139.725 183.029C139.725 182.367 140.265 181.831 140.931 181.831C141.597 181.831 142.138 182.367 142.138 183.029Z" fill="white" fill-opacity="0.3"/>
<path d="M139.721 154.353C139.721 155.014 139.181 155.55 138.515 155.55C137.849 155.55 137.309 155.014 137.309 154.353C137.309 153.691 137.849 153.155 138.515 153.155C139.181 153.155 139.721 153.691 139.721 154.353Z" fill="white" fill-opacity="0.3"/>
<path d="M164.024 147.522C164.024 148.183 163.484 148.719 162.818 148.719C162.151 148.719 161.611 148.183 161.611 147.522C161.611 146.86 162.151 146.324 162.818 146.324C163.484 146.324 164.024 146.86 164.024 147.522Z" fill="white" fill-opacity="0.3"/>
<path d="M177.112 123.942C177.112 124.603 176.572 125.139 175.906 125.139C175.239 125.139 174.699 124.603 174.699 123.942C174.699 123.28 175.239 122.744 175.906 122.744C176.572 122.744 177.112 123.28 177.112 123.942Z" fill="white" fill-opacity="0.3"/>
<path fill-rule="evenodd" clip-rule="evenodd" d="M94.0792 43.7402L108.696 49.5438L123.972 44.1284L147.593 49.7109V83.2207L150.926 93.1449L162.795 89.0471L175.928 75.1799L209.431 100.675V120.397L202.251 134.376L201.176 133.832L208.016 120.515L193.23 113.057L200.912 133.898L199.779 134.31L192.253 113.892L187.776 132.163L173.647 155.261L163.737 157.868V168.516L150.113 161.166L141.236 146.312L139.279 155.296L108.339 158.445L126.139 172.015V166.761L145.854 171.142L141.28 185.066L127.346 174.444V186.335L94.7697 184.663L63.4562 158.489L34.6537 140.792L26.0583 128.132L20.8994 114.194L33.5774 109.572L20.4707 102.935L33.0456 94.8065L47.9494 78.6447H65.2192L80.8413 80.7122L76.6908 59.8394L101.477 69.0314L94.0792 43.7402ZM100.952 70.115L78.2929 61.7119L82.0278 80.4952L100.952 70.115ZM81.0882 83.0611L82.2836 103.47L71.7637 95.1639L81.0882 83.0611ZM71.1208 94.0271L66.0788 79.9666L80.4846 81.8731L71.1208 94.0271ZM64.7536 79.8422H49.1007L58.608 103.817L70.2089 95.0553L64.7536 79.8422ZM58.8881 105.11L55.9044 120.658L81.917 104.711L70.9168 96.0254L58.8881 105.11ZM83.5584 104.601L89.3566 114.961L55.3462 122.432L36.0707 140.254L63.9827 157.405H106.738L138.285 154.193L140.706 143.079L150.661 159.736L163.737 146.193V156.63L172.462 154.334L166.015 137.003L175.554 123.634L191.788 111.345L207.786 100.932L176.356 77.0147L170.122 101.765L150.066 94.3711L146.521 83.8128L131.224 79.7452L123.403 60.8941V45.6016L108.672 50.8239L95.9273 45.7638L103.105 70.3022L82.2203 81.7578L83.5584 104.601ZM124.61 45.5101V60.6572L131.874 78.1691L146.387 63.2502V50.6568L124.61 45.5101ZM146.387 64.9742L132.813 78.9282L146.387 82.5376V64.9742ZM174.846 78.07L169.479 99.3796L163.879 89.6517L174.846 78.07ZM162.858 90.2932L152.33 93.9281L168.352 99.8345L162.858 90.2932ZM208.224 102.079L193.338 111.768L208.224 119.277V102.079ZM191.148 113.335L177.012 124.037L186.835 130.934L191.148 113.335ZM185.795 131.67L176.137 124.889L168.129 136.112L185.795 131.67ZM167.489 137.508L185.931 132.871L173.39 153.373L167.489 137.508ZM162.53 156.947V149.173L152.469 159.594L162.53 156.947ZM152.168 160.912L162.53 166.502V158.186L152.168 160.912ZM105.838 158.602H65.4639L94.7798 183.106L105.838 158.602ZM95.9137 183.523L126.139 185.074V173.525L107.007 158.94L95.9137 183.523ZM35.187 139.434L53.0539 122.915L27.5997 128.259L35.187 139.434ZM27.6524 127.024L54.5379 121.379L57.6519 105.152L34.1501 96.1798L35.6998 109.76L27.6524 127.024ZM34.4812 95.0232L57.2751 103.725L48.0076 80.3552L34.4812 95.0232ZM32.9494 96.2977L34.3557 108.621L22.8765 102.809L32.9494 96.2977ZM33.9225 110.722L26.6634 126.294L22.4479 114.905L33.9225 110.722ZM58.4031 120.534L82.7437 105.611L87.5163 114.139L58.4031 120.534ZM127.346 172.934L140.662 183.085L144.296 172.023L127.346 168.256V172.934ZM127.559 100.141L121.574 125.387L105.715 105.784L127.559 100.141ZM107.823 106.477L120.966 122.723L125.926 101.8L107.823 106.477Z" fill="white" fill-opacity="0.12"/>
</g>
<path fill-rule="evenodd" clip-rule="evenodd" d="M82.9626 107.138L77.5636 112.213L84.6215 127.684C88.5028 136.193 91.4207 143.41 91.1066 143.723C90.7925 144.036 84.5238 139.76 77.1769 134.219L63.8186 124.145L58.2731 129.134C55.2233 131.878 53.0074 134.435 53.3492 134.815C53.6911 135.196 64.8269 143.376 78.0941 152.994L102.216 170.481L107.471 166.135C110.363 163.745 112.738 161.102 112.751 160.263C112.765 159.424 110.629 153.806 108.008 147.779C105.386 141.752 102.357 134.778 101.279 132.282C99.7376 128.716 99.6993 128.044 101.097 129.148C114.541 139.771 126.09 147.991 127.568 147.991C129.495 147.991 138.754 139.21 137.76 138.325C133.823 134.818 90.0376 102.007 89.3276 102.03C88.7958 102.049 85.9306 104.347 82.9626 107.138Z" fill="white" fill-opacity="0.4"/>
<path d="M123.834 69.29L129.592 63.5369C132.759 60.3725 135.799 57.9384 136.346 58.1286C137.68 58.5882 185.946 97.4819 185.946 98.0961C185.946 98.3602 183.222 100.767 179.892 103.442L173.836 108.307L160.361 97.5031C152.949 91.5612 146.885 87.2728 146.885 87.9741C146.885 88.6741 149.663 96.2893 153.06 104.896L159.238 120.546L153.562 125.498C150.439 128.222 147.508 130.447 147.048 130.443C145.76 130.43 97.7691 93.6664 97.5293 92.5094C97.4135 91.9481 99.8676 89.2909 102.982 86.6032L108.643 81.7179L122.713 92.7538C130.452 98.8238 136.944 103.638 137.141 103.452C137.339 103.265 134.425 95.5035 130.667 86.2017L123.834 69.29Z" fill="white" fill-opacity="0.4"/>
<path d="M83.2348 107.428L83.2349 107.428C84.713 106.038 86.1634 104.773 87.3075 103.855C87.8802 103.395 88.3711 103.026 88.7477 102.774C88.9365 102.647 89.0898 102.554 89.2062 102.493C89.2423 102.475 89.2711 102.461 89.2932 102.451C89.3001 102.455 89.3074 102.46 89.3152 102.464C89.4101 102.521 89.5466 102.608 89.7251 102.726C90.0808 102.963 90.5857 103.313 91.2213 103.764C92.4915 104.663 94.2735 105.955 96.4061 107.519C100.671 110.645 106.332 114.853 112.096 119.172C123.511 127.726 135.291 136.69 137.43 138.563C137.418 138.616 137.39 138.699 137.331 138.817C137.188 139.104 136.921 139.493 136.548 139.96C135.805 140.888 134.694 142.055 133.486 143.201C132.278 144.347 130.983 145.461 129.876 146.286C129.321 146.7 128.821 147.035 128.407 147.264C128.2 147.379 128.021 147.464 127.872 147.52C127.719 147.577 127.621 147.594 127.568 147.594C127.55 147.594 127.473 147.583 127.313 147.523C127.164 147.468 126.972 147.382 126.738 147.263C126.269 147.025 125.655 146.669 124.909 146.203C123.419 145.273 121.424 143.919 119.05 142.229C114.305 138.851 108.062 134.145 101.343 128.836L101.343 128.836C101.163 128.694 100.997 128.573 100.85 128.482C100.709 128.394 100.555 128.315 100.403 128.282C100.245 128.248 99.9971 128.251 99.8248 128.464C99.6876 128.634 99.6809 128.848 99.689 128.987C99.7065 129.29 99.8325 129.724 100.03 130.268C100.233 130.827 100.528 131.546 100.914 132.44C101.993 134.936 105.022 141.91 107.644 147.938C108.952 150.947 110.139 153.852 110.996 156.108C111.425 157.236 111.77 158.198 112.006 158.929C112.125 159.294 112.214 159.597 112.274 159.831C112.336 160.079 112.355 160.211 112.354 160.257C112.354 160.281 112.341 160.355 112.278 160.493C112.218 160.624 112.125 160.786 111.997 160.977C111.742 161.359 111.367 161.827 110.895 162.351C109.953 163.399 108.651 164.644 107.218 165.828L107.218 165.829L102.2 169.978L78.3274 152.672C71.6943 147.863 65.5942 143.414 61.11 140.12C58.8678 138.473 57.0301 137.115 55.7321 136.145C55.0828 135.66 54.5696 135.273 54.2086 134.995C54.0279 134.857 53.8869 134.746 53.7867 134.666C53.7694 134.652 53.7541 134.64 53.7404 134.628C53.7673 134.565 53.8129 134.476 53.8838 134.361C54.0745 134.052 54.3985 133.63 54.8397 133.121C55.7185 132.107 57.0224 130.794 58.539 129.429C58.539 129.429 58.539 129.429 58.539 129.429L63.8409 124.66L76.9375 134.537L77.1769 134.219L76.9376 134.537C80.6145 137.309 84.0236 139.767 86.555 141.494C87.8198 142.357 88.8704 143.041 89.6277 143.491C90.0046 143.715 90.319 143.887 90.5551 143.994C90.6708 144.046 90.785 144.091 90.8869 144.115C90.9369 144.127 91.0039 144.139 91.0769 144.136C91.1442 144.133 91.2767 144.114 91.3871 144.005C91.4863 143.906 91.5112 143.788 91.5195 143.734C91.5294 143.67 91.5283 143.608 91.5247 143.557C91.5174 143.453 91.4947 143.331 91.4643 143.202C91.4025 142.939 91.2943 142.584 91.148 142.154C90.8544 141.289 90.3945 140.084 89.8058 138.628C88.6277 135.714 86.9255 131.777 84.9831 127.519L84.9831 127.519L78.0436 112.308L83.2348 107.428ZM53.7117 134.713C53.7113 134.72 53.7103 134.724 53.71 134.725C53.7096 134.725 53.7098 134.721 53.7117 134.713Z" stroke="white" stroke-opacity="0.5" stroke-width="0.795034"/>
<path d="M130.061 64.0056L130.061 64.0056L124.613 69.4486L131.282 85.9535L130.667 86.2017L131.282 85.9535C133.162 90.6079 134.832 94.8792 136.008 98.0122C136.595 99.5777 137.061 100.864 137.369 101.774C137.522 102.227 137.639 102.596 137.713 102.863C137.748 102.994 137.779 103.118 137.796 103.222C137.804 103.271 137.813 103.342 137.813 103.418C137.812 103.455 137.81 103.519 137.792 103.592C137.777 103.655 137.733 103.804 137.595 103.934M130.061 64.0056L137.141 103.452M130.061 64.0056C131.631 62.4361 133.165 61.0536 134.366 60.0919C134.968 59.6093 135.474 59.2438 135.85 59.014C136.006 58.919 136.127 58.8556 136.214 58.817C136.221 58.822 136.229 58.8274 136.238 58.8329C136.357 58.9129 136.523 59.0292 136.733 59.1823C137.153 59.4877 137.735 59.9254 138.457 60.4787C139.901 61.5844 141.893 63.1414 144.248 65.0011C148.958 68.7197 155.115 73.6423 161.231 78.5703C167.346 83.4983 173.42 88.4304 177.963 92.1683C180.235 94.0376 182.123 95.6065 183.441 96.7262C184.101 97.2867 184.614 97.7312 184.961 98.0433C184.997 98.0759 185.031 98.1067 185.063 98.1358C185.044 98.1551 185.023 98.1751 185.002 98.1959C184.708 98.4873 184.274 98.8869 183.729 99.3682C182.641 100.329 181.136 101.593 179.477 102.926L173.836 107.457L160.775 96.9862L160.775 96.9861C157.063 94.01 153.683 91.4437 151.226 89.7064C150 88.84 148.991 88.1699 148.28 87.7582C147.933 87.5572 147.62 87.3958 147.374 87.3117C147.271 87.2763 147.08 87.2175 146.874 87.2427C146.757 87.257 146.575 87.3062 146.423 87.4657C146.264 87.6327 146.222 87.8311 146.222 87.9741C146.222 88.0963 146.248 88.2288 146.27 88.3272C146.295 88.4414 146.33 88.5772 146.373 88.7295C146.46 89.0352 146.585 89.4342 146.743 89.9115C147.06 90.8674 147.516 92.161 148.076 93.6972C149.198 96.771 150.744 100.832 152.444 105.14L152.444 105.14L158.45 120.354M130.061 64.0056L158.45 120.354M137.595 103.934L137.141 103.452M137.595 103.934C137.595 103.934 137.596 103.933 137.596 103.933L137.141 103.452M137.595 103.934C137.441 104.079 137.268 104.11 137.179 104.117C137.086 104.124 137.01 104.112 136.968 104.103C136.883 104.085 136.809 104.055 136.764 104.035C136.667 103.992 136.555 103.93 136.443 103.864C136.213 103.727 135.898 103.52 135.517 103.258C134.75 102.732 133.67 101.952 132.361 100.981C129.739 99.0374 126.177 96.3126 122.305 93.2751M137.141 103.452C137.108 103.482 136.904 103.377 136.551 103.152C136.523 103.209 136.51 103.257 136.504 103.282C136.489 103.343 136.488 103.389 136.488 103.406C136.487 103.442 136.492 103.457 136.488 103.437C136.482 103.402 136.467 103.331 136.435 103.214C136.421 103.163 136.405 103.107 136.386 103.045C134.441 101.77 128.987 97.6746 122.713 92.7538M122.305 93.2751L122.305 93.2751L122.713 92.7538M122.305 93.2751L108.663 82.5757L103.415 87.1048C103.415 87.1048 103.415 87.1048 103.415 87.1048C101.872 88.4363 100.499 89.7551 99.5311 90.8032C99.0455 91.3291 98.6738 91.7742 98.4349 92.111C98.364 92.211 98.3092 92.2953 98.2683 92.3644C98.3432 92.4382 98.4391 92.5287 98.5572 92.6364C98.9113 92.9593 99.4309 93.4062 100.098 93.9623C101.429 95.073 103.323 96.5999 105.598 98.4036C110.147 102.01 116.206 106.712 122.298 111.379C128.391 116.046 134.515 120.677 139.195 124.14C141.536 125.873 143.512 127.311 144.941 128.315C145.656 128.817 146.229 129.207 146.639 129.47C146.822 129.586 146.965 129.673 147.07 129.733C147.168 129.681 147.298 129.604 147.461 129.498C147.83 129.261 148.322 128.909 148.906 128.466C150.072 127.58 151.574 126.353 153.126 124.999L158.45 120.354M122.305 93.2751L122.713 92.7538M122.713 92.7538L108.643 81.7179L102.982 86.6032C99.8676 89.2909 97.4135 91.9481 97.5293 92.5094M158.45 120.354L153.562 125.498C150.439 128.222 147.508 130.447 147.048 130.443M185.4 98.4612C185.4 98.4608 185.4 98.4605 185.4 98.4606L185.4 98.461L185.4 98.4612ZM185.4 98.4612C185.401 98.4619 185.402 98.4628 185.401 98.4624L185.401 98.4619L185.4 98.4612ZM97.5293 92.5094C97.7691 93.6664 145.76 130.43 147.048 130.443M97.5293 92.5094L98.1781 92.375C98.1594 92.2849 98.1234 92.2199 98.1061 92.193M97.5293 92.5094L98.1782 92.3755C98.1946 92.4549 98.1865 92.5128 98.1812 92.5361M147.048 130.443L147.054 129.781C147.128 129.781 147.184 129.796 147.208 129.804M147.048 130.443L147.208 129.804M147.208 129.804C147.209 129.804 147.209 129.805 147.21 129.805C147.226 129.812 147.224 129.81 147.208 129.804ZM98.1061 92.193L98.1812 92.5361M98.1061 92.193C98.0957 92.1768 98.092 92.1745 98.103 92.189C98.1038 92.19 98.1048 92.1914 98.1061 92.193ZM98.1812 92.5361C98.1784 92.5439 98.1776 92.5476 98.1778 92.5474C98.1781 92.5473 98.1795 92.5434 98.1812 92.5361ZM137.006 102.806C137.033 102.8 137.056 102.798 137.075 102.796C137.156 102.79 137.216 102.801 137.24 102.806C137.289 102.816 137.313 102.829 137.298 102.822C137.276 102.812 137.22 102.784 137.12 102.725C137.07 102.695 137.012 102.66 136.949 102.619C136.97 102.685 136.989 102.747 137.006 102.806ZM146.909 88.5547C146.909 88.5546 146.912 88.5551 146.918 88.5567C146.912 88.5557 146.909 88.5549 146.909 88.5547ZM136.082 58.7351C136.082 58.7351 136.083 58.7354 136.084 58.7362C136.083 58.7355 136.082 58.7351 136.082 58.7351Z" stroke="white" stroke-opacity="0.5" stroke-width="1.32506"/>
<ellipse cx="53.9661" cy="134.964" rx="1.95047" ry="1.93727" fill="white"/>
<ellipse cx="102.079" cy="169.834" rx="1.95047" ry="1.93727" fill="white"/>
<ellipse cx="112.478" cy="160.794" rx="1.95047" ry="1.93727" fill="white"/>
<ellipse cx="91.677" cy="144.004" rx="1.95047" ry="1.93727" fill="white"/>
<ellipse cx="99.4778" cy="128.506" rx="1.95047" ry="1.93727" fill="white"/>
<ellipse cx="137.185" cy="103.967" rx="1.95047" ry="1.93727" fill="white"/>
<ellipse cx="146.288" cy="87.1775" rx="1.95047" ry="1.93727" fill="white"/>
<ellipse cx="126.782" cy="147.879" rx="1.95047" ry="1.93727" fill="white"/>
<ellipse cx="137.185" cy="138.838" rx="1.95047" ry="1.93727" fill="white"/>
<ellipse cx="64.3704" cy="124.632" rx="1.95047" ry="1.93727" fill="white"/>
<ellipse cx="77.3723" cy="113.008" rx="1.95047" ry="1.93727" fill="white"/>
<ellipse cx="89.0755" cy="102.676" rx="1.95047" ry="1.93727" fill="white"/>
<defs>
<filter id="filter0_f_125_10461" x="36.077" y="121.198" width="108.528" height="103.482" filterUnits="userSpaceOnUse" color-interpolation-filters="sRGB">
<feFlood flood-opacity="0" result="BackgroundImageFix"/>
<feBlend mode="normal" in="SourceGraphic" in2="BackgroundImageFix" result="shape"/>
<feGaussianBlur stdDeviation="13.2506" result="effect1_foregroundBlur_125_10461"/>
</filter>
<filter id="filter1_f_125_10461" x="-51.4144" y="47.9128" width="190.8" height="167.748" filterUnits="userSpaceOnUse" color-interpolation-filters="sRGB">
<feFlood flood-opacity="0" result="BackgroundImageFix"/>
<feBlend mode="normal" in="SourceGraphic" in2="BackgroundImageFix" result="shape"/>
<feGaussianBlur stdDeviation="26.5011" result="effect1_foregroundBlur_125_10461"/>
</filter>
<filter id="filter2_f_125_10461" x="89.041" y="194.057" width="55.1528" height="73.4219" filterUnits="userSpaceOnUse" color-interpolation-filters="sRGB">
<feFlood flood-opacity="0" result="BackgroundImageFix"/>
<feBlend mode="normal" in="SourceGraphic" in2="BackgroundImageFix" result="shape"/>
<feGaussianBlur stdDeviation="4.6377" result="effect1_foregroundBlur_125_10461"/>
</filter>
<filter id="filter3_f_125_10461" x="105.476" y="146.758" width="88.6944" height="126.971" filterUnits="userSpaceOnUse" color-interpolation-filters="sRGB">
<feFlood flood-opacity="0" result="BackgroundImageFix"/>
<feBlend mode="normal" in="SourceGraphic" in2="BackgroundImageFix" result="shape"/>
<feGaussianBlur stdDeviation="7.95034" result="effect1_foregroundBlur_125_10461"/>
</filter>
<filter id="filter4_f_125_10461" x="32.9168" y="-5.21501" width="155.437" height="108.934" filterUnits="userSpaceOnUse" color-interpolation-filters="sRGB">
<feFlood flood-opacity="0" result="BackgroundImageFix"/>
<feBlend mode="normal" in="SourceGraphic" in2="BackgroundImageFix" result="shape"/>
<feGaussianBlur stdDeviation="13.2506" result="effect1_foregroundBlur_125_10461"/>
</filter>
<linearGradient id="paint0_linear_125_10461" x1="13.9719" y1="131.259" x2="174.329" y2="221.987" gradientUnits="userSpaceOnUse">
<stop stop-color="#6BF0D7"/>
<stop offset="0.458585" stop-color="#6BF0D5"/>
<stop offset="1" stop-color="#50B8AF"/>
</linearGradient>
<linearGradient id="paint1_linear_125_10461" x1="13.9719" y1="113.296" x2="174.329" y2="204.024" gradientUnits="userSpaceOnUse">
<stop stop-color="#59C9CA"/>
<stop offset="0.46875" stop-color="#58C8C9"/>
<stop offset="1" stop-color="#429AA0"/>
</linearGradient>
<linearGradient id="paint2_linear_125_10461" x1="82.0094" y1="59.9044" x2="174.011" y2="185.698" gradientUnits="userSpaceOnUse">
<stop stop-color="#4EAFB5"/>
<stop offset="0.46875" stop-color="#4DB0B5"/>
<stop offset="1" stop-color="#3884A6"/>
</linearGradient>
<linearGradient id="paint3_linear_125_10461" x1="82.0108" y1="41.9416" x2="174.012" y2="167.735" gradientUnits="userSpaceOnUse">
<stop stop-color="#5FE2BF"/>
<stop offset="1" stop-color="#276491"/>
</linearGradient>
<linearGradient id="paint4_linear_125_10461" x1="82.0108" y1="41.9416" x2="174.012" y2="167.735" gradientUnits="userSpaceOnUse">
<stop stop-color="#5FE2BF"/>
<stop offset="1" stop-color="#276491"/>
</linearGradient>
<linearGradient id="paint5_linear_125_10461" x1="44.6051" y1="116.851" x2="170.429" y2="179.39" gradientUnits="userSpaceOnUse">
<stop stop-color="#62F0CD"/>
<stop offset="1" stop-color="#286592"/>
</linearGradient>
<linearGradient id="paint6_linear_125_10461" x1="134.918" y1="230.768" x2="98.3164" y2="230.768" gradientUnits="userSpaceOnUse">
<stop stop-color="#568DAC"/>
<stop offset="1" stop-color="#48A6B0" stop-opacity="0"/>
</linearGradient>
<linearGradient id="paint7_linear_125_10461" x1="121.377" y1="230.975" x2="178.17" y2="209.969" gradientUnits="userSpaceOnUse">
<stop stop-color="#5995B0"/>
<stop offset="1" stop-color="#5995B0" stop-opacity="0"/>
</linearGradient>
<linearGradient id="paint8_linear_125_10461" x1="82.2315" y1="41.9416" x2="174.233" y2="167.735" gradientUnits="userSpaceOnUse">
<stop stop-color="#5FE2BF"/>
<stop offset="1" stop-color="#276491"/>
</linearGradient>
<linearGradient id="paint9_linear_125_10461" x1="115.802" y1="23.3301" x2="115.802" y2="258.203" gradientUnits="userSpaceOnUse">
<stop stop-color="#70BBB2"/>
<stop offset="1" stop-color="#84CAC1"/>
</linearGradient>
</defs>
</svg>
